<svg width="40" height="44" viewBox="0 0 40 44" fill="none" xmlns="http://www.w3.org/2000/svg">
<g id="Mark" clip-path="url(#clip0_1622_22331)">
<path id="Vector" d="M5.15431 10.3524C5.56596 9.58823 6.16006 8.93672 6.88419 8.45539L19.037 0L6.58498 20.5151C6.58498 20.5151 5.497 18.6832 5.07268 17.7563C4.54393 16.5908 4.27726 15.3243 4.29134 14.0454C4.30544 12.7665 4.59999 11.5061 5.15431 10.3524ZM0.138685 24.5044C0.275898 26.4663 0.832219 28.3762 1.7704 30.1065C2.70858 31.8368 4.00695 33.3473 5.5786 34.537L19.0206 43.8759C19.0206 43.8759 10.6105 31.7999 3.51687 19.7835C2.79871 18.5139 2.31592 17.1259 2.09161 15.6859C1.99231 15.0338 1.99231 14.3704 2.09161 13.7183C1.90665 14.0599 1.54762 14.759 1.54762 14.759C0.828352 16.2206 0.338497 17.7835 0.0951657 19.3933C-0.0448934 21.0948 -0.0303278 22.8054 0.138685 24.5044ZM34.4102 26.1304C33.9748 25.2035 32.8978 23.3715 32.8978 23.3715L20.4676 43.8759L32.6204 35.4259C33.3445 34.9446 33.9386 34.2932 34.3503 33.5289C34.9046 32.3753 35.1991 31.1148 35.2133 29.836C35.2274 28.5571 34.9607 27.2905 34.4319 26.125L34.4102 26.1304ZM39.3441 19.3769C39.2068 17.4151 38.6505 15.505 37.7124 13.7748C36.7742 12.0446 35.4758 10.534 33.9042 9.3443L20.4839 0C20.4839 0 28.8886 12.076 35.9877 24.0924C36.7039 25.3624 37.1848 26.7504 37.4075 28.19C37.5068 28.8421 37.5068 29.5055 37.4075 30.1576C37.5925 29.816 37.9515 29.1169 37.9515 29.1169C38.6708 27.6553 39.1607 26.0924 39.4039 24.4826C39.5458 22.7813 39.5331 21.0706 39.3659 19.3715L39.3441 19.3769Z" fill="url(#paint0_linear_1622_22331)"/>
</g>
<defs>
<linearGradient id="paint0_linear_1622_22331" x1="26.3114" y1="49.076" x2="-18.5005" y2="-21.9353" gradientUnits="userSpaceOnUse">
<stop stop-color="#44BCF0"/>
<stop offset="0.378795" stop-color="#7298F8"/>
<stop offset="1" stop-color="#A099FF"/>
</linearGradient>
<clipPath id="clip0_1622_22331">
<rect width="39.5732" height="44" fill="white"/>
</clipPath>
</defs>
</svg>
