<svg width="201" height="30" viewBox="0 0 201 30" fill="none" xmlns="http://www.w3.org/2000/svg">
<g id="New-logo">
<g id="Group 577">
<g id="Vector">
<path d="M14.8546 11.1072C15.125 11.0409 17.0326 9.1778 21.1298 5.09591C23.0667 3.15903 23.628 2.70296 23.9537 2.37723C25.0902 1.24083 25.9844 1.0281 27.4163 1.00681C28.9452 0.98408 30.8638 1.41927 31.2718 2.89287C31.351 3.17908 31.4161 4.27969 31.4165 5.33867C31.4177 8.29419 31.2995 8.42195 28.5641 8.42195C27.5632 8.42195 26.5965 8.47802 26.4162 8.54645C25.8132 8.77542 25.6849 9.67018 25.6849 11.3334C25.6849 12.9966 25.2236 14.1467 22.8684 14.1467C21.6404 14.1467 20.8781 14.1786 20.5062 14.4049C20.2732 14.5467 19.2196 15.4722 19.1544 15.7328C19.0893 15.9934 19.5453 17.557 19.6105 17.8176L13.4864 10.7815C13.7804 10.8664 14.642 11.1594 14.8546 11.1072Z" fill="#3889FF"/>
<path d="M17.0148 26.6881C13.2368 30.4661 7.11147 30.4661 3.33349 26.6881C-0.444497 22.9102 -0.444497 16.7848 3.33349 13.0068C7.11147 9.22886 13.2368 9.22886 17.0148 13.0068C20.7928 16.7848 20.7928 22.9102 17.0148 26.6881Z" fill="#3889FF"/>
</g>
<path id="Ellipse 2 (Stroke)" d="M4.2207 26.0674C7.36715 29.2139 12.695 28.7169 15.8414 25.5704C18.9879 22.424 19.4849 17.0961 16.3384 13.9497C19.6847 17.2959 19.6847 22.7212 16.3384 26.0674C12.9922 29.4136 7.56692 29.4136 4.2207 26.0674Z" fill="white"/>
<path id="Vector_2" d="M9.0744 14.1232C9.3121 14.0523 9.56398 14.041 9.80784 14.0905L13.9766 14.8442L7.3119 16.4652C7.3119 16.4652 7.46149 15.8749 7.56274 15.6018C7.69101 15.2594 7.89275 14.9496 8.15388 14.6942C8.415 14.4388 8.72918 14.2439 9.0744 14.1232ZM5.20078 15.9653C4.83238 16.3892 4.55935 16.8876 4.39996 17.427C4.24053 17.9664 4.19846 18.5344 4.2765 19.093L5.11296 23.7012C5.11296 23.7012 5.84832 19.5593 6.83828 15.6961C6.9492 15.2943 7.13172 14.9162 7.3771 14.58C7.48867 14.4282 7.62263 14.2942 7.77442 14.1826C7.66799 14.2142 7.45409 14.2826 7.45409 14.2826C7.01328 14.4321 6.59845 14.6485 6.2241 14.9243C5.85213 15.2395 5.50964 15.5879 5.20078 15.9653ZM11.8133 23.2344C11.9123 22.9591 12.0641 22.371 12.0641 22.371L5.40602 23.9943L9.57364 24.7491C9.81749 24.7986 10.0694 24.7873 10.3071 24.7164C10.6523 24.5957 10.9665 24.4008 11.2276 24.1454C11.4887 23.89 11.6905 23.5802 11.8187 23.2378L11.8133 23.2344ZM14.1763 22.8699C14.5446 22.4459 14.8177 21.9475 14.9771 21.4082C15.1365 20.8687 15.1786 20.3007 15.1005 19.7422L14.2696 15.1373C14.2696 15.1373 13.5331 19.2781 12.5443 23.1424C12.4329 23.5439 12.25 23.9216 12.0044 24.2574C11.8928 24.4092 11.7588 24.5432 11.607 24.6547C11.7135 24.6232 11.9274 24.5547 11.9274 24.5547C12.3682 24.4053 12.783 24.1889 13.1574 23.9131C13.5297 23.5982 13.8725 23.2502 14.1818 22.8732L14.1763 22.8699Z" fill="white"/>
<path id="Vector 1" d="M30.6018 1.01796L30.1796 0.496187L17.5588 13.2448L17.6204 13.31L30.6018 1.01796Z" fill="white"/>
</g>
<g id="Vector_3">
<path d="M40.476 26.6173C37.2534 26.6173 35.2891 24.745 35.2891 21.8907C35.2891 19.0977 37.3147 17.3482 40.9057 17.072L45.4482 16.7344V16.3968C45.4482 14.3404 44.2205 13.5117 42.3176 13.5117C40.1077 13.5117 38.88 14.4325 38.88 16.0285H35.6881C35.6881 12.7444 38.389 10.596 42.5017 10.596C46.5838 10.596 49.1005 12.8058 49.1005 17.0106V26.2183H45.8165L45.5402 23.9777C44.8957 25.543 42.8393 26.6173 40.476 26.6173ZM41.7037 23.7936C44.0056 23.7936 45.4789 22.4124 45.4789 20.0798V19.2818L42.3176 19.5274C39.985 19.7422 39.0949 20.5095 39.0949 21.7372C39.0949 23.1183 40.0157 23.7936 41.7037 23.7936Z" fill="#3889FF"/>
<path d="M51.889 18.6066C51.889 13.9107 54.9889 10.596 59.4699 10.596C63.6133 10.596 66.437 12.8979 66.836 16.5502H63.0916C62.6619 14.8315 61.4035 13.9414 59.6234 13.9414C57.2294 13.9414 55.6334 15.7522 55.6334 18.6066C55.6334 21.461 57.1066 23.2411 59.5006 23.2411C61.3728 23.2411 62.6926 22.3204 63.0916 20.663H66.8667C66.4063 24.1926 63.4599 26.6173 59.5006 26.6173C54.8968 26.6173 51.889 23.4253 51.889 18.6066Z" fill="#3889FF"/>
<path d="M68.7636 18.6066C68.7636 13.9107 71.8635 10.596 76.3446 10.596C80.488 10.596 83.3117 12.8979 83.7107 16.5502H79.9663C79.5366 14.8315 78.2782 13.9414 76.4981 13.9414C74.1041 13.9414 72.5081 15.7522 72.5081 18.6066C72.5081 21.461 73.9813 23.2411 76.3753 23.2411C78.2475 23.2411 79.5673 22.3204 79.9663 20.663H83.7414C83.281 24.1926 80.3346 26.6173 76.3753 26.6173C71.7715 26.6173 68.7636 23.4253 68.7636 18.6066Z" fill="#3889FF"/>
<path d="M85.6383 18.6066C85.6383 13.88 89.0451 10.6266 93.741 10.6266C98.4369 10.6266 101.844 13.88 101.844 18.6066C101.844 23.3332 98.4369 26.5866 93.741 26.5866C89.0451 26.5866 85.6383 23.3332 85.6383 18.6066ZM89.3828 18.6066C89.3828 21.3689 91.1629 23.2411 93.741 23.2411C96.3192 23.2411 98.0993 21.3689 98.0993 18.6066C98.0993 15.8443 96.3192 13.9721 93.741 13.9721C91.1629 13.9721 89.3828 15.8443 89.3828 18.6066Z" fill="#3889FF"/>
<path d="M114.734 11.0563H118.478V26.2183H115.01L114.734 24.1926C113.813 25.6351 111.849 26.6173 109.823 26.6173C106.324 26.6173 104.268 24.254 104.268 20.5402V11.0563H108.012V19.2204C108.012 22.1055 109.148 23.2718 111.235 23.2718C113.598 23.2718 114.734 21.8907 114.734 19.0056V11.0563Z" fill="#3889FF"/>
<path d="M126.09 26.2183H122.346V11.0563H125.814L126.121 13.0206C127.072 11.486 128.914 10.596 130.97 10.596C134.776 10.596 136.74 12.9592 136.74 16.8878V26.2183H132.996V17.7779C132.996 15.2305 131.738 14.0028 129.804 14.0028C127.502 14.0028 126.09 15.5988 126.09 18.0541V26.2183Z" fill="#3889FF"/>
<path d="M145.576 26.2183H141.831V14.1869H138.916V11.0563H141.831V6.32975H145.576V11.0563H148.522V14.1869H145.576V26.2183Z" fill="#3889FF"/>
<path d="M153.494 26.5866C152.143 26.5866 151.008 25.4816 151.008 24.1619C151.008 22.8114 152.143 21.7065 153.494 21.7065C154.844 21.7065 155.98 22.8114 155.98 24.1619C155.98 25.4816 154.844 26.5866 153.494 26.5866Z" fill="#3889FF"/>
<path d="M165.683 26.6173C161.171 26.6173 158.01 23.3332 158.01 18.6373C158.01 13.88 161.11 10.596 165.56 10.596C170.103 10.596 172.988 13.6345 172.988 18.3611V19.4967L161.57 19.5274C161.846 22.1976 163.258 23.548 165.744 23.548C167.801 23.548 169.151 22.75 169.581 21.3075H173.049C172.404 24.6223 169.642 26.6173 165.683 26.6173ZM165.591 13.6652C163.381 13.6652 162.03 14.8622 161.662 17.1334H169.274C169.274 15.0463 167.831 13.6652 165.591 13.6652Z" fill="#3889FF"/>
<path d="M180.911 26.2183H177.167V14.1869H174.251V11.0563H177.167V6.32975H180.911V11.0563H183.857V14.1869H180.911V26.2183Z" fill="#3889FF"/>
<path d="M189.85 26.2183H186.105V3.3833H189.881V13.0206C190.832 11.5474 192.612 10.596 194.791 10.596C198.536 10.596 200.5 12.9592 200.5 16.8878V26.2183H196.756V17.7779C196.756 15.2305 195.497 14.0028 193.594 14.0028C191.231 14.0028 189.85 15.6602 189.85 17.9314V26.2183Z" fill="#3889FF"/>
</g>
</g>
</svg>
