<svg width="393" height="591" viewBox="0 0 393 591" fill="none" xmlns="http://www.w3.org/2000/svg">
<path d="M12.4873 316.328L9.9258 317.824C8.95942 318.389 8.16765 319.239 7.63789 320.269L6.24077 323.005L4.84358 320.269C4.31964 319.239 3.52206 318.383 2.55568 317.824L0 316.328L2.55568 314.832C3.52206 314.267 4.31382 313.417 4.84358 312.387L6.24077 309.65L7.63789 312.387C8.16765 313.417 8.95942 314.273 9.9258 314.832L12.4873 316.328Z" fill="#FAD68C"/>
<path d="M35.357 186.27L33.7386 187.219C33.1273 187.574 32.6267 188.11 32.2949 188.768L31.41 190.497L30.5251 188.768C30.1932 188.116 29.6926 187.58 29.0813 187.219L27.4688 186.27L29.0813 185.321C29.6926 184.966 30.1932 184.431 30.5251 183.773L31.41 182.044L32.2949 183.773C32.6267 184.425 33.1273 184.961 33.7386 185.321L35.357 186.27Z" fill="#FAD68C"/>
<path d="M145.283 387.265L143.664 388.214C143.053 388.569 142.552 389.105 142.221 389.762L141.336 391.491L140.451 389.762C140.119 389.11 139.618 388.575 139.007 388.214L137.395 387.265L139.007 386.316C139.618 385.961 140.119 385.425 140.451 384.768L141.336 383.039L142.221 384.768C142.552 385.42 143.053 385.955 143.664 386.316L145.283 387.265Z" fill="#FAD68C"/>
<path d="M345.394 341.138L343.776 342.087C343.164 342.442 342.664 342.977 342.332 343.635L341.447 345.364L340.562 343.635C340.23 342.983 339.73 342.447 339.118 342.087L337.506 341.138L339.118 340.189C339.73 339.834 340.23 339.298 340.562 338.64L341.447 336.911L342.332 338.64C342.664 339.292 343.164 339.828 343.776 340.189L345.394 341.138Z" fill="#FAD68C"/>
<path d="M294.029 400.43L291.008 402.194C289.873 402.858 288.941 403.859 288.313 405.076L286.665 408.301L285.018 405.076C284.4 403.859 283.457 402.858 282.322 402.194L279.307 400.43L282.322 398.666C283.457 398.003 284.395 397.001 285.018 395.785L286.665 392.56L288.313 395.785C288.935 397.001 289.873 398.003 291.008 398.666L294.029 400.43Z" fill="#FAD68C"/>
<path d="M332.388 37.9924L329.862 39.4782C328.912 40.0372 328.133 40.8806 327.608 41.9054L326.23 44.622L324.852 41.9054C324.336 40.8806 323.547 40.0372 322.598 39.4782L320.076 37.9924L322.598 36.5066C323.547 35.9476 324.331 35.1042 324.852 34.0794L326.23 31.3628L327.608 34.0794C328.128 35.1042 328.912 35.9476 329.862 36.5066L332.388 37.9924Z" fill="#FAD68C"/>
<path d="M161.218 186.271C161.929 186.271 162.505 185.695 162.505 184.984C162.505 184.274 161.929 183.698 161.218 183.698C160.508 183.698 159.932 184.274 159.932 184.984C159.932 185.695 160.508 186.271 161.218 186.271Z" fill="#FAD68C"/>
<path d="M124.821 418.712C108.346 419.219 107.933 419.626 107.432 436.101C106.926 419.626 106.518 419.213 90.043 418.712C106.524 418.206 106.931 417.798 107.432 401.323C107.933 417.798 108.346 418.212 124.821 418.712Z" fill="#FAD68C"/>
<path d="M107.311 126.958C99.0733 127.208 98.8696 127.412 98.6135 135.655C98.3631 127.418 98.1594 127.214 89.916 126.958C98.1535 126.707 98.3573 126.504 98.6135 118.26C98.8638 126.498 99.0675 126.702 107.311 126.958Z" fill="#FAD68C"/>
<path d="M10.5154 104.201C11.5314 104.201 12.3551 103.378 12.3551 102.362C12.3551 101.346 11.5314 100.522 10.5154 100.522C9.49942 100.522 8.67578 101.346 8.67578 102.362C8.67578 103.378 9.49942 104.201 10.5154 104.201Z" fill="#FAD68C"/>
<path d="M318.232 230.586C319.248 230.586 320.072 229.762 320.072 228.746C320.072 227.73 319.248 226.907 318.232 226.907C317.216 226.907 316.393 227.73 316.393 228.746C316.393 229.762 317.216 230.586 318.232 230.586Z" fill="#FAD68C"/>
<path d="M391.162 198.385C392.178 198.385 393.002 197.562 393.002 196.546C393.002 195.53 392.178 194.706 391.162 194.706C390.146 194.706 389.322 195.53 389.322 196.546C389.322 197.562 390.146 198.385 391.162 198.385Z" fill="#FAD68C"/>
<path d="M181.324 311.743C182.34 311.743 183.164 310.92 183.164 309.904C183.164 308.888 182.34 308.064 181.324 308.064C180.308 308.064 179.484 308.888 179.484 309.904C179.484 310.92 180.308 311.743 181.324 311.743Z" fill="#FAD68C"/>
<path d="M19.9021 590.758C20.9181 590.758 21.7417 589.934 21.7417 588.918C21.7417 587.902 20.9181 587.079 19.9021 587.079C18.8861 587.079 18.0625 587.902 18.0625 588.918C18.0625 589.934 18.8861 590.758 19.9021 590.758Z" fill="#FAD68C"/>
<path d="M228.259 3.67923C229.275 3.67923 230.099 2.85561 230.099 1.83962C230.099 0.823626 229.275 0 228.259 0C227.243 0 226.42 0.823626 226.42 1.83962C226.42 2.85561 227.243 3.67923 228.259 3.67923Z" fill="#FAD68C"/>
<path d="M162.914 483.458C163.93 483.458 164.753 482.634 164.753 481.618C164.753 480.602 163.93 479.779 162.914 479.779C161.898 479.779 161.074 480.602 161.074 481.618C161.074 482.634 161.898 483.458 162.914 483.458Z" fill="#FAD68C"/>
<path d="M69.1521 340.449C70.1681 340.449 70.9917 339.626 70.9917 338.61C70.9917 337.594 70.1681 336.77 69.1521 336.77C68.1361 336.77 67.3125 337.594 67.3125 338.61C67.3125 339.626 68.1361 340.449 69.1521 340.449Z" fill="#FAD68C"/>
<path d="M132.752 31.3628C133.768 31.3628 134.591 30.5392 134.591 29.5232C134.591 28.5072 133.768 27.6836 132.752 27.6836C131.736 27.6836 130.912 28.5072 130.912 29.5232C130.912 30.5392 131.736 31.3628 132.752 31.3628Z" fill="#FAD68C"/>
<path d="M356.119 123.566C357.135 123.566 357.958 122.742 357.958 121.726C357.958 120.71 357.135 119.887 356.119 119.887C355.103 119.887 354.279 120.71 354.279 121.726C354.279 122.742 355.103 123.566 356.119 123.566Z" fill="#FAD68C"/>
<path d="M109.387 244.941C110.403 244.941 111.226 244.117 111.226 243.101C111.226 242.085 110.403 241.262 109.387 241.262C108.371 241.262 107.547 242.085 107.547 243.101C107.547 244.117 108.371 244.941 109.387 244.941Z" fill="#FAD68C"/>
<path d="M183.13 152.914V262.11H99.0977V152.905C99.0977 152.474 99.105 152.043 99.1124 151.62C99.1197 151.312 99.1271 150.995 99.1418 150.687L99.1639 150.027C99.1786 149.702 99.2007 149.376 99.2227 149.05C99.2301 148.839 99.2448 148.637 99.2669 148.434C99.2816 148.17 99.3036 147.915 99.3257 147.66C99.3404 147.501 99.3478 147.351 99.3698 147.202C99.3846 146.973 99.414 146.744 99.436 146.515C99.5243 145.653 99.6347 144.799 99.7597 143.954C99.8186 143.567 99.8848 143.171 99.951 142.783C100.032 142.29 100.12 141.806 100.216 141.331C100.282 141.005 100.348 140.68 100.422 140.354C100.503 139.949 100.598 139.553 100.694 139.157C100.782 138.752 100.885 138.356 100.988 137.969C101.099 137.537 101.216 137.115 101.334 136.692C101.511 136.059 101.702 135.434 101.908 134.809C102.437 133.172 103.033 131.579 103.695 130.029C103.843 129.677 103.997 129.334 104.152 128.991C104.166 128.964 104.181 128.938 104.188 128.912C104.321 128.621 104.453 128.331 104.6 128.04C104.939 127.327 105.292 126.623 105.66 125.945C105.807 125.664 105.954 125.391 106.108 125.109C106.263 124.836 106.417 124.564 106.572 124.299C106.734 124.027 106.888 123.754 107.05 123.49C107.212 123.226 107.374 122.962 107.543 122.698C107.859 122.196 108.183 121.703 108.521 121.219C108.543 121.175 108.565 121.14 108.595 121.104C108.661 121.008 108.727 120.911 108.793 120.814C108.985 120.55 109.169 120.286 109.36 120.022C109.382 119.987 109.404 119.96 109.426 119.934C109.654 119.626 109.882 119.326 110.118 119.018C110.353 118.71 110.596 118.402 110.831 118.103C110.949 117.945 111.074 117.795 111.199 117.654C111.324 117.504 111.442 117.355 111.567 117.205C111.626 117.135 111.692 117.056 111.758 116.985C112.258 116.395 112.766 115.823 113.288 115.278C113.59 114.952 113.891 114.644 114.208 114.336C114.347 114.195 114.487 114.063 114.627 113.931C114.649 113.896 114.671 113.869 114.693 113.861C115.01 113.544 115.333 113.236 115.664 112.945C116.076 112.567 116.488 112.197 116.915 111.845C118.062 110.877 119.254 109.97 120.49 109.134C120.733 108.976 120.976 108.817 121.218 108.659C121.461 108.5 121.711 108.342 121.954 108.192C122.447 107.893 122.947 107.602 123.447 107.321C123.97 107.03 124.492 106.757 125.029 106.502C125.367 106.335 125.706 106.168 126.052 106.009C126.162 105.956 126.272 105.912 126.383 105.86C130.966 103.791 135.924 102.647 141.11 102.647C152.711 102.647 163.216 108.271 170.823 117.372C178.422 126.465 183.13 139.034 183.13 152.914Z" fill="url(#paint0_linear_3522_6738)" stroke="#332933" stroke-linejoin="round"/>
<path d="M156.663 164.259V262.109H96.4512V164.259C96.4512 163.872 96.4586 163.486 96.466 163.107C96.4734 162.831 96.4809 162.547 96.4957 162.271L96.518 161.68C96.5328 161.388 96.5551 161.096 96.5774 160.804C96.5848 160.615 96.5996 160.434 96.6219 160.252C96.6367 160.016 96.659 159.787 96.6812 159.558C96.6961 159.416 96.7035 159.282 96.7258 159.148C96.7406 158.943 96.7703 158.738 96.7926 158.533C96.8816 157.76 96.9929 156.995 97.1191 156.238C97.1636 155.977 97.2082 155.717 97.2601 155.457C97.275 155.37 97.2972 155.276 97.3121 155.189C97.3937 154.747 97.4828 154.313 97.5793 153.888C97.6461 153.596 97.7128 153.304 97.7871 153.012C97.8687 152.649 97.9652 152.294 98.0617 151.939C98.1507 151.577 98.2546 151.222 98.3585 150.875C98.4699 150.488 98.5886 150.11 98.7074 149.731C98.8855 149.163 99.0784 148.603 99.2863 148.043C99.8206 146.577 100.422 145.149 101.09 143.761C101.238 143.445 101.394 143.138 101.55 142.83C101.565 142.807 101.58 142.783 101.587 142.759C101.721 142.499 101.854 142.239 102.003 141.979C102.344 141.34 102.7 140.709 103.071 140.101C103.22 139.849 103.368 139.605 103.524 139.352C103.68 139.108 103.836 138.863 103.992 138.627C104.155 138.382 104.311 138.138 104.474 137.901C104.637 137.664 104.801 137.428 104.971 137.191C105.29 136.742 105.617 136.3 105.958 135.866C105.981 135.827 106.003 135.795 106.033 135.764C106.285 135.433 106.545 135.109 106.804 134.794C106.827 134.762 106.849 134.739 106.871 134.715C107.101 134.439 107.331 134.171 107.569 133.895C107.806 133.619 108.051 133.343 108.289 133.074C108.407 132.932 108.534 132.798 108.66 132.672C108.845 132.459 109.031 132.262 109.224 132.073C109.729 131.544 110.241 131.032 110.768 130.543C111.072 130.251 111.376 129.975 111.695 129.699C111.836 129.573 111.977 129.454 112.118 129.336C112.141 129.305 112.163 129.281 112.185 129.273C112.504 128.989 112.831 128.713 113.165 128.453C113.58 128.114 113.996 127.782 114.426 127.467C115.584 126.599 116.787 125.787 118.033 125.038C118.278 124.896 118.523 124.754 118.768 124.612C119.013 124.47 119.265 124.328 119.51 124.194C120.008 123.926 120.512 123.666 121.017 123.413C122.798 122.538 124.646 121.789 126.553 121.173C127.236 121.394 127.919 121.631 128.587 121.891C144.944 128.137 156.663 144.723 156.663 164.259Z" fill="#332933"/>
<path d="M112.738 160.263C112.096 160.197 112.265 159.237 112.923 159.303C113.565 159.37 113.395 160.33 112.738 160.263Z" fill="#FAD68C"/>
<path d="M145.752 180.862C145.109 180.795 145.279 179.835 145.936 179.902C146.579 179.968 146.409 180.928 145.752 180.862Z" fill="#FAD68C"/>
<path d="M101.666 161.023C101.009 160.964 101.193 159.982 101.851 160.041C102.508 160.1 102.323 161.082 101.666 161.023Z" fill="#FAD68C"/>
<path d="M143.885 173.33C143.242 173.263 143.412 172.303 144.069 172.37C144.712 172.436 144.542 173.396 143.885 173.33Z" fill="#FAD68C"/>
<path d="M138.898 194.622C137.598 194.489 137.968 192.561 139.26 192.687C140.56 192.819 140.191 194.747 138.898 194.622Z" fill="#FAD68C"/>
<path d="M137.342 214.074C135.651 213.905 136.131 211.394 137.807 211.563C139.498 211.733 139.018 214.244 137.342 214.074Z" fill="#FAD68C"/>
<path d="M108.929 217.539C107.63 217.406 107.999 215.478 109.291 215.604C110.591 215.736 110.222 217.664 108.929 217.539Z" fill="#FAD68C"/>
<path d="M150.258 199.222C148.958 199.089 149.327 197.162 150.619 197.287C151.919 197.42 151.55 199.348 150.258 199.222Z" fill="#FAD68C"/>
<path d="M111.537 201.165C110.237 201.032 110.606 199.104 111.899 199.237C113.199 199.37 112.829 201.298 111.537 201.165Z" fill="#FAD68C"/>
<path d="M151.191 164.075C150.467 164.001 150.667 162.922 151.398 162.996C152.122 163.07 151.922 164.148 151.191 164.075Z" fill="#FAD68C"/>
<path d="M101.152 218.668C100.51 218.602 100.679 217.641 101.337 217.708C101.979 217.774 101.809 218.734 101.152 218.668Z" fill="#FAD68C"/>
<path d="M102.46 228.136C102.548 227.493 103.509 227.708 103.413 228.358C103.324 229 102.364 228.786 102.46 228.136Z" fill="#FAD68C"/>
<path d="M124.062 201.327C123.42 201.261 123.59 200.301 124.247 200.367C124.889 200.434 124.72 201.394 124.062 201.327Z" fill="#FAD68C"/>
<path d="M143.929 200.198C143.287 200.131 143.457 199.171 144.114 199.238C144.757 199.304 144.587 200.264 143.929 200.198Z" fill="#FAD68C"/>
<path d="M147.097 190.973C146.455 190.906 146.625 189.946 147.282 190.013C147.925 190.079 147.755 191.039 147.097 190.973Z" fill="#FAD68C"/>
<path d="M132.803 165.722C131.961 165.634 132.19 164.386 133.04 164.474C133.882 164.563 133.653 165.811 132.803 165.722Z" fill="#FAD68C"/>
<path d="M116.018 191.121C115.176 191.032 115.405 189.784 116.254 189.873C117.096 189.961 116.867 191.209 116.018 191.121Z" fill="#FAD68C"/>
<path d="M151.137 210.692C150.494 210.626 150.664 209.666 151.321 209.732C151.964 209.799 151.794 210.759 151.137 210.692Z" fill="#FAD68C"/>
<path d="M120.626 224.239C119.179 224.092 119.577 221.935 121.04 222.083C122.487 222.231 122.088 224.387 120.626 224.239Z" fill="#FAD68C"/>
<path d="M138.529 202.797C137.887 202.73 138.056 201.77 138.714 201.837C139.356 201.903 139.186 202.863 138.529 202.797Z" fill="#FAD68C"/>
<path d="M103.84 208.72C103.197 208.654 103.367 207.694 104.024 207.76C104.667 207.827 104.497 208.787 103.84 208.72Z" fill="#FAD68C"/>
<path d="M142.89 160.245C141.272 160.083 141.715 157.668 143.348 157.83C144.965 157.993 144.522 160.408 142.89 160.245Z" fill="#FAD68C"/>
<path d="M124.89 230.98C123.442 230.832 123.841 228.675 125.303 228.823C126.751 228.971 126.352 231.127 124.89 230.98Z" fill="#FAD68C"/>
<path d="M148.928 152.139C148.285 152.073 148.455 151.113 149.112 151.179C149.755 151.246 149.585 152.206 148.928 152.139Z" fill="#FAD68C"/>
<path d="M138.773 223.624C138.131 223.557 138.301 222.597 138.958 222.663C139.6 222.73 139.431 223.69 138.773 223.624Z" fill="#FAD68C"/>
<path d="M152.095 174.06C151.453 173.993 151.623 173.033 152.28 173.099C152.923 173.166 152.753 174.126 152.095 174.06Z" fill="#FAD68C"/>
<path d="M134.156 152.877C133.514 152.811 133.683 151.851 134.341 151.917C134.983 151.984 134.813 152.944 134.156 152.877Z" fill="#FAD68C"/>
<path d="M117.671 226.455C116.223 226.308 116.622 224.151 118.085 224.299C119.532 224.446 119.133 226.603 117.671 226.455Z" fill="#FAD68C"/>
<path d="M103.345 195.375C102.703 195.308 102.873 194.348 103.53 194.414C104.173 194.481 104.003 195.441 103.345 195.375Z" fill="#FAD68C"/>
<path d="M132.851 236.142C132.326 236.09 132.474 235.322 132.998 235.374C133.523 235.426 133.375 236.194 132.851 236.142Z" fill="#FAD68C"/>
<path d="M121.493 184.452C120.969 184.4 121.116 183.632 121.641 183.684C122.165 183.735 122.017 184.503 121.493 184.452Z" fill="#FAD68C"/>
<path d="M130.524 210.537C130 210.485 130.148 209.717 130.672 209.769C131.196 209.821 131.049 210.589 130.524 210.537Z" fill="#FAD68C"/>
<path d="M141.344 215.987C140.362 215.891 140.643 214.436 141.617 214.532C142.6 214.628 142.326 216.083 141.344 215.987Z" fill="#FAD68C"/>
<path d="M127.356 196.844C126.832 196.793 126.98 196.025 127.504 196.076C128.028 196.128 127.881 196.896 127.356 196.844Z" fill="#FAD68C"/>
<path d="M121.404 236.925C121.455 236.541 122.031 236.674 121.98 237.058C121.928 237.442 121.352 237.309 121.404 236.925Z" fill="#FAD68C"/>
<path d="M152.726 238.018C151.751 237.929 152.024 236.474 152.999 236.563C153.974 236.652 153.701 238.107 152.726 238.018Z" fill="#FAD68C"/>
<path d="M149.8 226.32C148.825 226.231 149.098 224.776 150.073 224.865C151.048 224.953 150.775 226.408 149.8 226.32Z" fill="#FAD68C"/>
<path d="M112.744 172.84C112.087 172.781 112.272 171.798 112.929 171.858C113.586 171.917 113.402 172.899 112.744 172.84Z" fill="#FAD68C"/>
<path d="M111.965 209.082C111.573 209.045 111.684 208.462 112.075 208.499C112.467 208.536 112.356 209.119 111.965 209.082Z" fill="#FAD68C"/>
<path d="M135.865 180.567C135.474 180.531 135.584 179.954 135.976 179.984C136.367 180.021 136.256 180.604 135.865 180.567Z" fill="#FAD68C"/>
<path d="M108.849 135.685C108.088 135.205 108.915 134.127 109.676 134.607C110.437 135.087 109.609 136.165 108.849 135.685Z" fill="#FAD68C"/>
<path d="M108.849 135.685C108.088 135.205 108.915 134.127 109.676 134.607C110.437 135.087 109.609 136.165 108.849 135.685Z" fill="#FAD68C"/>
<path d="M120.102 128.241C119.319 127.753 120.169 126.646 120.951 127.133C121.734 127.62 120.885 128.736 120.102 128.241Z" fill="#FAD68C"/>
<path d="M121.174 128.936C120.391 128.448 121.241 127.34 122.024 127.828C122.806 128.315 121.957 129.423 121.174 128.936Z" fill="#FAD68C"/>
<path d="M128.787 139.437C128.27 139.112 128.832 138.381 129.349 138.698C129.866 139.023 129.304 139.754 128.787 139.437Z" fill="#FAD68C"/>
<path d="M111.773 141.978C111.012 141.498 111.839 140.42 112.6 140.9C113.36 141.38 112.533 142.458 111.773 141.978Z" fill="#FAD68C"/>
<path d="M107.394 147.724C106.633 147.244 107.46 146.166 108.221 146.646C108.981 147.126 108.154 148.204 107.394 147.724Z" fill="#FAD68C"/>
<path d="M106.78 145.56C106.448 145.353 106.81 144.881 107.142 145.095C107.474 145.309 107.113 145.774 106.78 145.56Z" fill="#FAD68C"/>
<path d="M106.78 145.56C106.448 145.353 106.81 144.881 107.142 145.095C107.474 145.309 107.113 145.774 106.78 145.56Z" fill="#FAD68C"/>
<path d="M100.858 176.482C100.2 176.423 100.385 175.441 101.042 175.5C101.699 175.559 101.515 176.541 100.858 176.482Z" fill="#FAD68C"/>
<path d="M100.858 176.482C100.2 176.423 100.385 175.441 101.042 175.5C101.699 175.559 101.515 176.541 100.858 176.482Z" fill="#FAD68C"/>
<path d="M100.858 176.482C100.2 176.423 100.385 175.441 101.042 175.5C101.699 175.559 101.515 176.541 100.858 176.482Z" fill="#FAD68C"/>
<path d="M108.313 185.395C107.655 185.335 107.84 184.353 108.497 184.412C109.155 184.471 108.97 185.454 108.313 185.395Z" fill="#FAD68C"/>
<path d="M124.394 162.839C124.003 162.802 124.114 162.219 124.505 162.256C124.897 162.293 124.786 162.876 124.394 162.839Z" fill="#FAD68C"/>
<path d="M99.3494 200.198C98.7069 200.131 98.8767 199.171 99.534 199.238C100.177 199.304 100.007 200.264 99.3494 200.198Z" fill="#FAD68C"/>
<path d="M115.699 170.624C115.042 170.565 115.227 169.583 115.884 169.642C116.541 169.701 116.357 170.683 115.699 170.624Z" fill="#FAD68C"/>
<path d="M120.963 152.431C119.7 151.626 121.059 149.831 122.336 150.643C123.599 151.448 122.24 153.243 120.963 152.431Z" fill="#FAD68C"/>
<path d="M141.64 143.568C140.377 142.763 141.736 140.968 143.014 141.781C144.269 142.586 142.918 144.38 141.64 143.568Z" fill="#FAD68C"/>
<path d="M135.074 208.373C134.033 208.521 133.257 209.385 133.198 210.434C133.043 213.462 132.696 219.126 132.452 221.275C132.275 219.104 131.987 213.476 131.847 210.448C131.802 209.392 131.02 208.521 129.971 208.373C128.996 208.233 127.748 208.026 126.189 207.804C127.814 207.583 129.092 207.361 130.089 207.221C131.086 207.081 131.81 206.327 131.943 205.367C132.083 204.37 132.305 203.093 132.526 201.468C132.748 203.093 132.969 204.37 133.11 205.367C133.25 206.364 134.003 207.088 134.963 207.221C135.96 207.361 137.238 207.583 138.863 207.804C137.297 208.019 136.049 208.225 135.067 208.373H135.074Z" fill="#FAD68C"/>
<path d="M131.758 210.648C131.042 210.744 130.48 210.84 130.045 210.906C129.609 210.973 129.291 211.298 129.232 211.718C129.173 212.139 129.077 212.716 128.974 213.432C128.878 212.716 128.782 212.154 128.715 211.718C128.649 211.283 128.324 210.965 127.903 210.906C127.467 210.847 126.906 210.751 126.189 210.648C126.876 210.552 127.423 210.463 127.851 210.396C128.309 210.33 128.656 209.946 128.671 209.488C128.73 208.159 128.856 205.692 128.937 204.739C129.04 205.685 129.195 208.166 129.262 209.495C129.284 209.953 129.631 210.337 130.082 210.404C130.51 210.463 131.056 210.559 131.751 210.655L131.758 210.648Z" fill="#FAD68C"/>
<path d="M135.325 181.97C129.764 182.14 129.623 182.28 129.453 187.841C129.284 182.28 129.143 182.14 123.582 181.97C129.143 181.8 129.284 181.66 129.453 176.099C129.623 181.66 129.764 181.8 135.325 181.97Z" fill="#FAD68C"/>
<path d="M130.361 184.518C126.838 184.628 126.749 184.71 126.638 188.24C126.527 184.717 126.446 184.628 122.916 184.518C126.439 184.407 126.527 184.326 126.638 180.795C126.749 184.318 126.83 184.407 130.361 184.518Z" fill="#FAD68C"/>
<path d="M136.654 190.98C134.062 191.061 133.995 191.121 133.914 193.72C133.833 191.128 133.773 191.061 131.174 190.98C133.766 190.899 133.833 190.84 133.914 188.24C133.995 190.833 134.054 190.899 136.654 190.98Z" fill="#FAD68C"/>
<path d="M149.194 232.612C145.059 232.737 144.955 232.841 144.83 236.977C144.704 232.841 144.601 232.737 140.465 232.612C144.601 232.486 144.704 232.383 144.83 228.247C144.955 232.383 145.059 232.486 149.194 232.612Z" fill="#FAD68C"/>
<path d="M112.63 196.46C109.291 196.563 109.21 196.645 109.107 199.983C109.003 196.645 108.922 196.563 105.584 196.46C108.922 196.356 109.003 196.275 109.107 192.937C109.21 196.275 109.291 196.356 112.63 196.46Z" fill="#FAD68C"/>
<path d="M152.864 182.812C150.568 182.886 150.508 182.938 150.442 185.234C150.368 182.938 150.316 182.879 148.02 182.812C150.316 182.738 150.375 182.687 150.442 180.39C150.516 182.687 150.568 182.746 152.864 182.812Z" fill="#FAD68C"/>
<path fill-rule="evenodd" clip-rule="evenodd" d="M196.363 278.651H78.5859V158.889C78.5859 126.365 104.951 100 137.475 100C169.998 100 196.363 126.365 196.363 158.889V278.651ZM137.475 121.173C116.645 121.173 99.7594 138.059 99.7594 158.889V257.478H175.19V158.889C175.19 138.059 158.304 121.173 137.475 121.173Z" fill="url(#paint1_linear_3522_6738)" stroke="#332933" stroke-linejoin="round"/>
<path d="M151.38 280.879C157.376 288.707 173.495 290.675 178.317 280.769C186.382 296.916 209.518 320.25 233.402 288.015C233.402 288.015 283.735 320.649 300.21 284.802C300.21 284.802 300.878 287.404 303.877 289.87C311.618 295.322 320.322 285.067 321.064 277.648C321.096 277.657 322.847 279.911 325.937 282.176C329.383 284.714 336.422 287.192 342.774 286.573C344.972 285.987 344.093 284.228 341.695 283.136C341.7 283.072 341.705 283.007 341.709 282.942C338.603 281.198 334.638 278.938 335.446 276.533C335.894 275.196 336.043 273.993 335.971 272.91C335.553 266.588 327.579 264.451 327.579 264.451C327.579 264.451 330.263 264.132 330.688 259.639C331.411 251.996 323.783 254.094 320.804 253.218C322.11 241.272 312.044 234.247 301.449 232.049C306.641 224.767 303.843 220.422 294.923 221.031C322.78 172.889 234.529 175.773 235.968 220.665C228.711 208.038 213.406 208.546 210.99 225.39C199.329 209.656 181.958 231.883 187.639 247.52C183.057 238.298 165.725 242.561 166.134 253.004C166.174 255.44 168.275 258.013 164.99 257.582C150.896 254.219 142.464 270.633 151.38 280.879Z" fill="#F7E7CD"/>
<mask id="mask0_3522_6738" style="mask-type:luminance" maskUnits="userSpaceOnUse" x="147" y="185" width="198" height="122">
<path d="M151.38 280.879C157.376 288.707 173.495 290.675 178.317 280.769C186.382 296.917 209.932 324.207 233.816 291.972C233.816 291.972 283.735 320.649 300.211 284.802C300.211 284.802 300.879 287.404 303.877 289.87C311.618 295.322 320.322 285.067 321.064 277.649C321.096 277.657 322.848 279.911 325.937 282.176C329.383 284.714 334.574 287.297 340.926 286.677C343.653 286.677 344.055 286.017 344.161 284.802C344.166 284.737 341.705 283.008 341.709 282.943C338.603 281.198 334.638 278.938 335.446 276.534C335.894 275.197 336.043 273.993 335.972 272.91C335.554 266.588 327.579 264.451 327.579 264.451C327.579 264.451 330.263 264.132 330.689 259.639C331.411 251.996 323.783 254.094 320.804 253.218C322.11 241.272 312.044 234.247 301.449 232.049C306.642 224.767 303.843 220.423 294.924 221.031C322.78 172.889 234.53 175.773 235.968 220.666C228.711 208.038 213.406 208.546 210.991 225.391C199.329 209.657 181.958 231.884 187.639 247.52C183.058 238.298 165.725 242.561 166.134 253.004C166.174 255.44 168.275 258.013 164.99 257.582C150.896 254.219 142.464 270.633 151.38 280.879Z" fill="white"/>
</mask>
<g mask="url(#mask0_3522_6738)">
<path d="M321.064 269.673C321.979 280.49 305.379 280.839 309.359 270.21C304.336 285.731 293.026 271.135 293.026 271.135C292.292 281.438 270.417 294.486 262.339 271.558C264.467 277.603 236.063 281.65 247.935 267.608C238.862 278.34 227.304 264.567 234.343 257.196C223.19 268.873 198.644 271.366 208.396 255.479C194.253 259.716 191.66 276.9 204.296 289.36C185.563 270.891 158.263 273.443 166.165 260.485C166.165 260.485 118.123 258.895 131.679 283.827C161.192 329.999 241.862 315.012 289.004 310.976C297.955 308.568 306.514 304.845 315.492 302.551C324.958 300.173 336.01 298.977 342.343 290.689C349.307 283.619 326.461 282.951 321.06 269.674L321.064 269.673Z" fill="#FAD68C"/>
<path d="M316.225 259.715C314.641 259.041 312.881 258.106 313.392 254.776C313.392 254.776 310.7 255.334 309.86 252.217C310.324 253.942 311.147 255.562 312.669 256.013C312.406 257.941 313.776 259.324 315.275 260.151C316.688 260.913 318.32 260.851 319.87 260.771C319.51 262.821 322.74 264.05 324.433 264.281C320.222 263.702 321.394 259.888 321.394 259.888C319.851 260.09 317.737 260.358 316.227 259.715L316.225 259.715Z" fill="#FCDAB8"/>
<path d="M237.333 281.906C230.81 286.061 226.33 281.11 225.236 276.579C219.556 285.151 210.117 285.327 203.324 277.014C203.616 285.847 217.229 292.586 224.965 278.618C226.559 282.363 227.761 289.282 236.232 283.204C235.05 287.96 250.323 284.798 250.323 284.798C250.323 284.798 237.431 286.917 237.33 281.908L237.333 281.906Z" fill="#FAEFDE"/>
</g>
<path d="M178.316 280.769C173.494 290.675 157.376 288.707 151.379 280.879C142.463 270.633 150.895 254.219 164.989 257.582C168.275 258.013 166.174 255.44 166.134 253.004C165.724 242.56 183.057 238.298 187.638 247.52C181.957 231.883 199.329 209.656 210.99 225.39C213.405 208.546 228.71 208.038 235.968 220.665C234.529 175.773 322.779 172.889 294.923 221.03C303.843 220.422 306.641 224.767 301.448 232.049C312.043 234.247 322.11 241.272 320.803 253.218C323.782 254.094 331.41 251.996 330.688 259.639C330.262 264.132 327.578 264.451 327.578 264.451C327.578 264.451 335.553 266.588 335.971 272.91C336.042 273.993 335.893 275.196 335.445 276.533C334.637 278.938 338.602 281.198 341.708 282.942C341.705 283.007 342.333 283.348 342.328 283.413C346.218 286.646 341.708 286.719 341.708 286.719C341.708 286.719 332.952 288.552 325.937 282.176C322.847 279.911 321.095 277.657 321.064 277.648C320.322 285.067 311.617 295.322 303.876 289.87C300.878 287.404 300.21 284.802 300.21 284.802C283.734 320.649 233.515 292.427 233.515 292.427C209.631 324.662 186.381 296.916 178.316 280.769Z" stroke="#332933" stroke-linejoin="round"/>
<path d="M37.886 284.245C25.6006 278.133 23.6541 257.011 38.4167 247.878C29.1427 245.698 27.6776 237.704 29.5976 230.377C31.0469 224.675 41.243 218.263 45.4251 221.757C46.8126 206.519 62.3122 201.883 72.6898 206.376C81.7205 211.552 79.395 224.474 72.6405 230.735C76.4259 229.873 79.6735 226.576 83.5312 227.024C89.9402 227.761 94.3532 238.935 90.559 243.688C101.067 239.168 110.246 249.51 105.988 261.699C116.637 256.529 137.5 276.463 110.72 281.089C108.181 290.933 89.3213 295.614 86.5761 284.018C69.7913 303.987 52.6485 284.579 52.2483 284.751C46.5799 286.601 41.7278 286.157 37.886 284.245Z" fill="#F7E7CD"/>
<mask id="mask1_3522_6738" style="mask-type:luminance" maskUnits="userSpaceOnUse" x="28" y="204" width="96" height="90">
<path d="M37.886 284.245C25.6006 278.133 23.6541 257.011 38.4167 247.878C29.1427 245.698 27.6776 237.704 29.5976 230.377C31.0469 224.675 41.243 218.263 45.4251 221.757C46.8126 206.519 62.3122 201.883 72.6898 206.376C81.7205 211.552 79.395 224.474 72.6405 230.735C76.4259 229.873 79.6735 226.576 83.5312 227.024C89.9402 227.761 94.3532 238.935 90.559 243.688C101.067 239.168 110.246 249.51 105.988 261.699C116.637 256.529 137.5 276.463 110.72 281.089C108.181 290.933 89.3213 295.614 86.5761 284.018C69.7913 303.987 52.6485 284.579 52.2483 284.751C46.5799 286.601 41.7278 286.157 37.886 284.245Z" fill="white"/>
</mask>
<g mask="url(#mask1_3522_6738)">
<path d="M60.5063 210.533C56.534 214.493 55.8182 221.57 59.5348 225.773C36.7677 216.424 42.0782 262.785 62.414 256.3C47.9476 276.824 79.4456 294.581 88.4675 274.446C82.6686 287.389 110.293 291.481 105.043 272.572C119.618 286.241 143.612 273.621 126.898 256.3C130.017 256.628 130.158 257.312 131.851 259.953C153.253 312.258 47.0555 300.552 22.9467 285.25C11.9202 280.254 6.49681 269.483 7.36956 257.624C4.26118 228.323 19.3517 196.964 51.4932 194.951C56.8408 194.413 62.3822 194.667 67.3701 196.677C69.1297 197.386 81.2705 205.452 76.2562 207.492C70.9651 206.302 64.6267 206.162 60.5063 210.533Z" fill="#FAD68C"/>
<path d="M104.451 262.749C100.04 264.951 94.3803 261.021 96.0305 255.979C95.8207 257.433 93.1302 258.161 92.2328 256.804C93.4493 258.643 94.6677 258.461 94.6677 258.461C94.0488 262.567 98.1216 265.84 101.972 264.286C102.915 263.905 103.779 263.378 104.451 262.747V262.749Z" fill="#FAD68C"/>
<path d="M86.6239 255.966C84.4059 256.86 81.7453 256.885 79.8641 255.328C79.3316 256.796 77.0572 255.911 75.8354 256.165C73.9136 255.594 71.4611 253.505 71.0767 251.465C71.0767 251.465 70.1564 255.356 66.6072 253.905C71.6938 255.985 72.6283 258.438 69.0297 260.698C71.4382 258.754 74.0264 262.139 74.0264 262.139C74.0264 262.139 79.9998 256.474 89.8027 264.681C86.7349 262.112 83.184 259.438 88.5668 254.929C88.1877 255.247 87.0541 255.763 86.6221 255.966H86.6239Z" fill="#FAD68C"/>
</g>
<path d="M37.886 284.245C25.6006 278.133 23.6541 257.011 38.4167 247.878C29.1427 245.698 27.6776 237.704 29.5976 230.377C31.0469 224.675 41.2429 218.263 45.4251 221.757C46.8126 206.519 62.3122 201.883 72.6898 206.376C81.7205 211.552 79.395 224.474 72.6405 230.735C76.4259 229.873 79.6735 226.576 83.5312 227.024C89.9402 227.761 94.3532 238.935 90.559 243.688C101.067 239.168 110.246 249.51 105.988 261.699C116.637 256.529 137.5 276.463 110.72 281.089C108.181 290.933 89.3213 295.614 86.5761 284.018C69.7913 303.987 52.6485 284.579 52.2483 284.751C46.5799 286.601 41.7278 286.157 37.886 284.245Z" stroke="#332933" stroke-linejoin="round"/>
<g clip-path="url(#clip0_3522_6738)">
<path d="M218.736 231.086C218.668 231.257 218.595 231.427 218.523 231.597L217.135 234.696C217.105 234.764 217.07 234.828 217.041 234.891V234.9C216.494 235.892 215.465 236.475 214.384 236.475C214.286 236.475 214.179 236.475 214.081 236.458C213.684 236.419 213.282 236.296 212.902 236.083C211.732 235.428 211.198 234.061 211.467 232.785C211.51 232.567 211.582 232.355 211.672 232.15L213.022 229.146C213.022 229.146 213.039 229.107 213.052 229.086C214.277 226.264 212.616 223.017 209.643 222.199L207.034 221.48C204.642 220.82 202.9 218.841 202.964 216.369C202.891 216.275 202.964 216.466 202.964 216.369C202.964 215.113 208.529 213.27 210.468 214.926L214.235 217.407C218.74 220.374 220.718 226.077 218.74 231.086H218.736Z" fill="#9E0EB0"/>
<path d="M182.293 149.76L182.784 150.479L204.946 215.369L205.163 216.011L197.318 218.667C182.075 222.94 164.873 215.075 157.339 198.706C148.776 180.098 156.724 159.221 174.106 152.467C174.324 152.382 174.542 152.301 174.759 152.22L175.046 152.118L182.293 149.751V149.76Z" fill="url(#paint2_linear_3522_6738)" stroke="#332933" stroke-width="1.11956" stroke-linejoin="round"/>
<path d="M225.174 168.742C232.857 185.443 227.151 205.298 211.631 213.508C195.154 222.225 174.094 214.606 165.531 195.998C156.968 177.391 164.921 156.514 182.299 149.76C198.669 143.397 217.49 152.041 225.178 168.742H225.174Z" fill="#FFFBF6"/>
<mask id="mask2_3522_6738" style="mask-type:luminance" maskUnits="userSpaceOnUse" x="162" y="147" width="67" height="71">
<path d="M225.174 168.742C232.857 185.443 227.151 205.298 211.631 213.508C195.154 222.225 174.094 214.606 165.531 195.998C156.968 177.391 164.921 156.514 182.299 149.76C198.669 143.397 217.49 152.041 225.178 168.742H225.174Z" fill="white"/>
</mask>
<g mask="url(#mask2_3522_6738)">
<path d="M213.322 214.079C202.615 219.748 189.969 218.514 180.078 211.845C186.472 212.751 193.087 211.742 199.092 208.563C214.612 200.353 220.322 180.498 212.635 163.797C209.696 157.404 205.127 152.199 199.69 148.556C211.067 150.177 221.591 157.847 226.865 169.313C234.553 186.014 228.842 205.869 213.322 214.075V214.079Z" fill="#FAD68C"/>
</g>
<path d="M225.174 168.742C232.857 185.443 227.151 205.298 211.631 213.508C195.154 222.225 174.094 214.606 165.531 195.998C156.968 177.391 164.921 156.514 182.299 149.76C198.669 143.397 217.49 152.041 225.178 168.742H225.174Z" stroke="#332933" stroke-width="1.13529" stroke-miterlimit="10"/>
<g clip-path="url(#clip1_3522_6738)">
<path d="M199.096 190.224L202.504 199.622L208.157 179.205L199.096 190.216V190.224Z" fill="#3C65E5" stroke="#332933" stroke-width="1.13529" stroke-linecap="round" stroke-linejoin="round"/>
<path d="M188.863 162.023L207.362 177.015L198.301 188.027L184.172 185.366" fill="#3C65E5"/>
<path d="M188.863 162.023L207.362 177.015L198.301 188.027L184.172 185.366" stroke="#332933" stroke-width="1.13529" stroke-linecap="round" stroke-linejoin="round"/>
<path d="M184.172 185.366L188.863 162.023L193.899 175.904L184.172 185.366ZM184.966 187.563L199.087 190.224L202.495 199.622L184.966 187.563Z" fill="#7A90DD" stroke="#332933" stroke-width="1.13529" stroke-linecap="round" stroke-linejoin="round"/>
<path d="M193.898 175.904L198.301 188.027L207.362 177.015L193.898 175.904Z" fill="#657ED7" stroke="#332933" stroke-width="1.13529" stroke-linecap="round" stroke-linejoin="round"/>
<path d="M184.172 185.366L193.899 175.904L198.301 188.027L184.172 185.366Z" fill="#9BAFF3" stroke="#332933" stroke-width="1.13529" stroke-linecap="round" stroke-linejoin="round"/>
</g>
<path d="M265.706 184.159C265.736 184.167 258.207 185.44 253.355 183.337C250.058 180.788 247.261 177.042 243.003 176.2C238.847 176.374 240.628 170.156 243.144 168.764C255.256 162.078 251.207 181.005 265.702 184.159H265.706Z" fill="#BC56BA"/>
<path d="M239.226 248.644C237.868 249.929 236.322 251.04 234.597 251.934C234.255 252.117 233.905 252.287 233.55 252.444C221.169 258.045 203.044 255.407 188.365 254.057C187.968 254.023 187.575 253.985 187.182 253.951C183.607 253.632 180.255 253.41 177.265 253.432C176.765 245.788 174.122 236.292 173.541 228.576C175.091 227.529 176.936 226.584 179.157 225.771C179.179 225.758 179.196 225.754 179.213 225.75C191.35 222.217 201.592 227.831 212.333 213.224C212.568 212.956 212.794 212.683 213.012 212.411C221.127 202.417 219.961 191.458 226.452 182.575C227.272 181.452 228.212 180.366 229.309 179.319C231.039 182.439 233.247 187.461 235.43 192.369C237.356 196.701 239.26 200.945 240.789 203.707C240.708 204.788 240.696 205.954 240.742 207.18C240.947 213.003 242.485 220.208 244.599 226.09C247.503 234.177 245.197 243.034 239.231 248.652L239.226 248.644Z" fill="#FFFBF6"/>
<mask id="mask3_3522_6738" style="mask-type:luminance" maskUnits="userSpaceOnUse" x="173" y="179" width="73" height="77">
<path d="M239.228 248.644C237.87 249.929 236.324 251.04 234.599 251.934C234.257 252.117 233.907 252.287 233.552 252.444C221.171 258.045 203.046 255.407 188.367 254.057C187.97 254.023 187.577 253.985 187.184 253.951C183.609 253.632 180.257 253.41 177.267 253.432C176.767 245.788 174.124 236.292 173.543 228.576C175.093 227.529 176.938 226.584 179.159 225.771C179.18 225.758 179.198 225.754 179.215 225.75C191.352 222.217 201.594 227.831 212.335 213.224C212.57 212.956 212.796 212.683 213.014 212.411C221.129 202.417 219.963 191.458 226.454 182.575C227.274 181.452 228.214 180.366 229.311 179.319C231.041 182.439 233.249 187.461 235.432 192.369C237.358 196.701 239.262 200.945 240.791 203.707C240.71 204.788 240.697 205.954 240.744 207.18C240.949 213.003 242.487 220.208 244.601 226.09C247.505 234.177 245.199 243.034 239.233 248.652L239.228 248.644Z" fill="white"/>
</mask>
<g mask="url(#mask3_3522_6738)">
<path d="M187.759 225.516C194.896 227.495 203.074 224.001 197.445 235.211C197.185 238.378 196.574 242.6 198.637 245.235C203.194 248.367 204.172 244.975 201.985 241.14C201.87 240.374 203.476 239.289 203.911 238.68C205.381 236.424 206.649 233.943 207.332 231.334C208.161 227.67 205.953 224.282 206.867 220.702C207.021 218.783 209.733 217.204 209.113 215.331C208.024 213.931 205.953 214.433 204.646 214.156C201.071 213.607 202.583 210.505 202.263 208.13C199.94 204.461 193.52 213.182 191.586 214.688C188.455 217.88 178.607 222.89 187.763 225.516H187.759Z" fill="#FAD68C"/>
</g>
<path d="M259.901 265.416C259.901 267.927 259.696 271.225 258.919 275.103C255.366 274.388 248.144 269.774 245.769 266.271C245.59 264.845 246.854 261.385 248.05 260.104C249.532 261.887 253.862 266.305 259.901 265.416Z" fill="#BC56BA"/>
<mask id="mask4_3522_6738" style="mask-type:luminance" maskUnits="userSpaceOnUse" x="245" y="260" width="15" height="16">
<path d="M259.901 265.416C259.901 267.927 259.696 271.225 258.919 275.103C255.366 274.388 248.144 269.774 245.769 266.271C245.59 264.845 246.854 261.385 248.05 260.104C249.532 261.887 253.862 266.305 259.901 265.416Z" fill="white"/>
</mask>
<g mask="url(#mask4_3522_6738)">
<path d="M248.244 271.843C248.552 273.703 255.176 275.721 256.636 274.346C258.242 270.677 260.147 260.896 254.347 260.275C252.169 259.768 251.067 260.909 249.999 262.373C248.398 264.561 249.282 269.315 248.248 271.843H248.244Z" fill="#9E0EB0"/>
</g>
<path d="M259.898 265.417C253.859 266.307 249.529 261.889 248.047 260.106C248.111 260.033 248.175 259.965 248.243 259.91C247.948 259.74 247.701 259.565 247.496 259.386C244.536 256.807 250.225 253.364 245.39 248.61C239.471 252.641 230.635 254.249 225.855 247.946C230.81 244.209 234.145 243.039 239.104 239.302C245.847 240.766 251.395 237.025 254.35 239.208C255.858 240.323 256.362 244.699 256.353 244.907C256.076 250.478 259.527 253.547 259.881 263.804C259.898 264.298 259.911 264.834 259.911 265.413L259.898 265.417Z" fill="#FFFBF6"/>
<mask id="mask5_3522_6738" style="mask-type:luminance" maskUnits="userSpaceOnUse" x="225" y="238" width="35" height="28">
<path d="M259.898 265.417C253.859 266.307 249.529 261.889 248.047 260.106C248.111 260.033 248.175 259.965 248.243 259.91C247.948 259.74 247.701 259.565 247.496 259.386C244.536 256.807 250.225 253.364 245.39 248.61C239.471 252.641 230.635 254.249 225.855 247.946C230.81 244.209 234.145 243.039 239.104 239.302C245.847 240.766 251.395 237.025 254.35 239.208C255.858 240.323 256.362 244.699 256.353 244.907C256.076 250.478 259.527 253.547 259.881 263.804C259.898 264.298 259.911 264.834 259.911 265.413L259.898 265.417Z" fill="white"/>
</mask>
<g mask="url(#mask5_3522_6738)">
<path d="M252.413 250.091C254.313 244.366 251.298 244.996 250.905 242.86C250.76 242.068 251.089 241.259 251.7 240.727C259.959 233.53 261.279 255.777 262.91 261.31C262.957 261.472 262.992 261.638 263.009 261.808C263.192 263.702 263.987 266.618 263.308 268.495C262.975 269.418 262.065 270.005 261.083 270.014C258.627 270.035 255.219 269.261 254.04 267.201C251.512 262.183 251.392 255.896 252.327 250.453C252.349 250.334 252.379 250.21 252.417 250.095L252.413 250.091Z" fill="#FAD68C"/>
<path d="M237.444 251.317C240.882 249.334 244.132 246.903 246.489 243.715C247.292 242.626 247.997 241.43 248.287 240.11C248.578 238.791 248.398 237.318 247.578 236.242C246.997 235.476 246.135 234.956 245.221 234.663C243.192 234.007 240.933 234.411 239.024 235.361C237.115 236.31 235.509 237.761 234.01 239.272C231.302 242 228.449 245.073 226.514 248.418C224.669 251.611 228.441 253.471 231.234 253.458C233.467 253.449 235.552 252.411 237.439 251.321L237.444 251.317Z" fill="#FAD68C"/>
</g>
<path d="M237.571 268.609C236.913 271.341 235.717 275.321 233.377 279.96C229.926 278.223 223.815 271.439 222.371 267.162C222.606 265.561 225.139 262.08 226.732 261.322C226.732 261.322 230.071 270.264 237.575 268.609H237.571Z" fill="#BC56BA"/>
<mask id="mask6_3522_6738" style="mask-type:luminance" maskUnits="userSpaceOnUse" x="222" y="261" width="16" height="19">
<path d="M237.569 268.609C236.911 271.341 235.715 275.321 233.375 279.96C229.924 278.223 223.813 271.439 222.369 267.162C222.604 265.561 225.137 262.08 226.73 261.322C226.73 261.322 230.069 270.264 237.573 268.609H237.569Z" fill="white"/>
</mask>
<g mask="url(#mask6_3522_6738)">
<path d="M223.394 274.87C223.279 276.853 229.612 280.467 231.436 279.394C233.947 275.998 238.197 266.388 232.38 264.4C230.262 263.374 228.861 264.289 227.417 265.545C225.256 267.422 225.051 272.516 223.398 274.87H223.394Z" fill="#9E0EB0"/>
</g>
<path d="M239.072 248.439C238.982 248.703 238.909 248.958 238.841 249.217C238.615 250.064 238.482 250.886 238.414 251.712C238.059 256.002 239.362 260.352 237.316 268.864C229.813 270.52 226.473 261.577 226.473 261.577C224.931 260.015 225.7 257.228 226.793 254.631C227.434 253.103 228.185 251.639 228.642 250.524C229.385 248.728 229.364 247.843 226.853 249.094C226.823 249.111 226.785 249.128 226.755 249.145C219.763 252.699 214.143 254.227 210.56 250.814C209.616 249.916 208.817 248.681 208.168 247.047C211.35 245.787 213.541 244.012 215.766 242.25C219.135 239.586 223.522 238.603 227.737 239.445C231.401 240.182 234.775 239.935 236.97 240.816C237.645 241.084 238.209 241.463 238.64 242.012C238.871 242.306 239.033 242.71 239.144 243.17C239.623 245.17 239.131 248.268 239.072 248.434V248.439Z" fill="#FFFBF6"/>
<mask id="mask7_3522_6738" style="mask-type:luminance" maskUnits="userSpaceOnUse" x="208" y="239" width="32" height="31">
<path d="M239.074 248.439C238.984 248.703 238.911 248.958 238.843 249.217C238.617 250.064 238.484 250.886 238.416 251.712C238.061 256.002 239.364 260.352 237.318 268.864C229.814 270.52 226.475 261.577 226.475 261.577C224.933 260.015 225.702 257.228 226.795 254.631C227.436 253.103 228.187 251.639 228.644 250.524C229.387 248.728 229.366 247.843 226.855 249.094C226.825 249.111 226.786 249.128 226.757 249.145C219.765 252.699 214.145 254.227 210.562 250.814C209.618 249.916 208.819 248.681 208.17 247.047C211.352 245.787 213.543 244.012 215.768 242.25C219.137 239.586 223.524 238.603 227.739 239.445C231.403 240.182 234.777 239.935 236.972 240.816C237.647 241.084 238.211 241.463 238.642 242.012C238.873 242.306 239.035 242.71 239.146 243.17C239.625 245.17 239.133 248.268 239.074 248.434V248.439Z" fill="white"/>
</mask>
<g mask="url(#mask7_3522_6738)">
<path d="M233.704 252.001C236.993 246.944 233.918 246.791 234.08 244.625C234.14 243.82 234.665 243.122 235.387 242.76C245.205 237.879 240.836 259.734 241.011 265.497C241.016 265.667 241.007 265.833 240.977 266.003C240.674 267.88 240.7 270.902 239.568 272.545C239.008 273.354 237.983 273.694 237.031 273.456C234.652 272.856 231.552 271.247 230.928 268.957C229.758 263.462 231.236 257.355 233.52 252.324C233.572 252.213 233.631 252.103 233.7 252.001H233.704Z" fill="#FAD68C"/>
</g>
<path d="M168.17 234.079C167.82 234.636 167.495 235.211 167.2 235.794C153.141 236.747 155.421 245.221 147.384 253.636C135.754 263.472 114.409 253.534 123.967 235.786C120.311 243.025 124.586 252.976 135.088 251.41C145.616 249.852 143.98 235.356 153.739 232.466C159.427 230.444 165.479 232.674 168.174 234.079H168.17Z" fill="#BC56BA"/>
<path d="M169.185 232.636C168.916 232.985 168.66 233.343 168.421 233.7C168.335 233.828 168.254 233.955 168.169 234.079C165.474 232.674 159.422 230.44 153.733 232.466C143.979 235.356 145.614 249.852 135.083 251.41C124.581 252.976 120.306 243.025 123.961 235.786C124.013 235.688 124.064 235.586 124.119 235.488C121.446 240.936 126.895 249.41 131.986 243.259C132.875 241.748 133.882 240.31 134.989 238.969C143.453 228.674 157.714 223.868 169.181 232.636H169.185Z" fill="#EF4180"/>
<path d="M128.99 233.581C129.046 233.9 129.11 234.202 129.178 234.492C129.093 234.224 129.033 233.917 128.99 233.581Z" fill="#F6A93C"/>
<path d="M169.652 232.053C169.494 232.249 169.332 232.441 169.187 232.636C168.918 232.985 168.662 233.343 168.422 233.7C155.332 224.022 142.447 237.131 134.995 238.97C132.201 239.659 130.169 238.765 129.178 234.501C130.455 238.791 136.366 234.982 140.508 230.572C144.467 226.359 158.403 221.268 169.652 232.058V232.053Z" fill="#FFB409"/>
<path d="M156.262 198.093C156.147 198.595 155.959 199.034 155.707 199.408" stroke="#332933" stroke-width="1.11956" stroke-linecap="round" stroke-linejoin="round"/>
<path d="M158.145 196.97C158.145 196.97 161.054 199.936 164.355 200.353C166.379 200.609 167.78 202.617 167.199 204.567C167.076 204.975 166.871 205.363 166.55 205.699C164.757 207.589 162.519 207.355 161.502 207.048C160.486 206.742 156.151 205.09 154.524 203.03C152.896 200.97 158.15 196.965 158.15 196.965L158.145 196.97Z" fill="url(#paint3_linear_3522_6738)" stroke="#332933" stroke-width="1.11956" stroke-linejoin="round"/>
<path d="M157.754 200.499C158.885 198.309 158.279 195.752 156.4 194.788C154.521 193.824 152.081 194.818 150.949 197.008C149.818 199.198 150.424 201.755 152.303 202.719C154.182 203.683 156.622 202.689 157.754 200.499Z" fill="#FFFBF6"/>
<path d="M156.268 198.08C156.268 198.08 156.268 198.089 156.268 198.093C156.127 198.574 155.947 199.021 155.712 199.408V199.417C153.428 202.856 146.171 201.072 143.98 197.174C144.096 196.544 148.226 191.496 150.19 190.5C150.745 190.206 151.074 190.134 151.476 190.219C151.433 189.751 151.399 189.274 151.506 188.819C151.621 188.312 151.933 187.819 152.415 187.623C152.552 187.572 152.693 187.538 152.834 187.546C153.218 187.572 153.534 187.874 153.709 188.214C153.889 188.555 153.961 188.942 154.09 189.3C154.559 190.662 155.747 191.675 156.233 193.028C156.345 193.335 156.421 193.654 156.481 193.977C156.712 195.203 156.661 196.752 156.276 198.076L156.268 198.08Z" fill="#FFFBF6"/>
<path d="M148.012 186.022C147.106 184.073 144.279 184.894 144.514 187.048C144.757 189.423 146.188 192.364 148.631 193.109C150.502 194.096 153.132 192.496 152.112 190.436C150.566 189.15 149.092 187.737 148.012 186.022Z" fill="#FFFBF6"/>
<path d="M144.746 192.028C146.206 188.521 152.438 190.917 150.388 194.181C150.153 194.556 149.768 194.828 149.328 194.858C148.269 194.93 147.073 194.177 145.925 194.492C144.306 194.977 144.421 194.075 144.545 192.904C144.575 192.607 144.635 192.309 144.75 192.032L144.746 192.028Z" fill="#FFFBF6"/>
<path d="M149.583 195.336C149.416 195.067 149.147 194.876 148.874 194.723C147.678 194.063 146.145 194.05 144.941 194.693C144.624 194.859 144.326 195.08 144.155 195.391C143.997 195.685 143.971 196.034 143.967 196.37C143.958 196.736 143.971 197.119 144.146 197.442C144.39 197.898 144.915 198.145 145.427 198.196C145.731 198.225 146.034 198.196 146.337 198.136C146.64 198.077 146.965 198.059 147.281 198.098C147.358 198.106 147.43 198.119 147.507 198.128C148.007 198.191 148.549 198.247 148.989 198.008C149.544 197.706 149.779 197.025 149.805 196.395C149.822 196.029 149.779 195.651 149.583 195.34V195.336Z" fill="#FFFBF6"/>
<path d="M165.129 288.476C157.779 296.048 149.729 288.719 155.9 279.76L159.069 279.411C159.069 279.411 157.818 290.26 165.134 288.476H165.129Z" fill="#BC56BA"/>
<mask id="mask8_3522_6738" style="mask-type:luminance" maskUnits="userSpaceOnUse" x="153" y="279" width="13" height="13">
<path d="M165.129 288.476C157.779 296.048 149.729 288.719 155.9 279.76L159.069 279.411C159.069 279.411 157.818 290.26 165.134 288.476H165.129Z" fill="white"/>
</mask>
<g mask="url(#mask8_3522_6738)">
<path d="M154.022 287.026C152.984 288.184 154.624 291.921 156.26 292.146C159.45 291.282 165.626 288.214 163.033 284.187C162.235 282.536 161.163 283.085 160.095 284.128C158.237 285.4 156.183 286.384 154.022 287.026Z" fill="#9E0EB0"/>
</g>
<path d="M203.185 254.618C200.81 257.951 197.607 260.662 193.922 262.547C183.185 268.051 173.469 270.017 168.724 283.3C167.592 285.492 166.375 287.199 165.128 288.476C157.816 290.259 159.063 279.41 159.063 279.41C161.258 272.507 163.031 278.521 167.353 271.983C169.757 269.647 170.18 265.94 170.915 263.463C173.165 262.718 175.489 261.952 177.872 261.049C182.185 259.406 186.055 256.759 189.04 253.299C193.439 253.627 198.231 254.146 203.176 254.614L203.185 254.618Z" fill="#FFFBF6"/>
<mask id="mask9_3522_6738" style="mask-type:luminance" maskUnits="userSpaceOnUse" x="158" y="253" width="46" height="36">
<path d="M203.185 254.618C200.81 257.951 197.607 260.662 193.922 262.547C183.185 268.051 173.469 270.017 168.724 283.3C167.592 285.492 166.375 287.199 165.128 288.476C157.816 290.259 159.063 279.41 159.063 279.41C161.258 272.507 163.031 278.521 167.353 271.983C169.757 269.647 170.18 265.94 170.915 263.463C173.165 262.718 175.489 261.952 177.872 261.049C182.185 259.406 186.055 256.759 189.04 253.299C193.439 253.627 198.231 254.146 203.176 254.614L203.185 254.618Z" fill="white"/>
</mask>
<g mask="url(#mask9_3522_6738)">
<path d="M175.998 264.705C179.564 263.39 183.143 262.071 186.863 261.279C191.036 260.389 195.328 260.177 199.509 259.347C201.935 258.866 204.63 257.917 205.578 255.64C206.244 254.035 205.817 252.124 204.801 250.715C203.784 249.306 202.255 248.34 200.666 247.634C195.341 245.28 188.87 245.689 183.882 248.689C182.656 249.426 181.52 250.307 180.414 251.213C176.438 254.473 172.786 258.125 169.524 262.092C168.507 263.326 167.153 265.488 169.319 266.531C171.018 267.353 174.362 265.301 175.998 264.701V264.705Z" fill="#FAD68C"/>
<path d="M161.439 289.824C160.427 289.688 159.419 289.246 158.796 288.445C158.078 287.526 157.959 286.288 157.963 285.121C157.967 283.73 158.228 282.138 159.407 281.393C160.402 280.763 161.687 280.967 162.862 280.844C165.646 280.554 167.85 278.38 169.477 276.111C169.99 275.4 170.549 274.609 171.408 274.421C171.907 275.043 171.429 275.937 171.045 276.635C170.246 278.094 169.904 279.75 169.584 281.384C169.268 283.015 168.956 284.674 168.217 286.164C166.927 288.756 164.318 290.22 161.435 289.824H161.439Z" fill="#FAD68C"/>
</g>
<path d="M143.952 285.404C135.248 292.456 127.62 283.718 135.244 274.921H138.669C138.669 274.921 136.106 286.608 143.952 285.404Z" fill="#BC56BA"/>
<mask id="mask10_3522_6738" style="mask-type:luminance" maskUnits="userSpaceOnUse" x="132" y="274" width="12" height="14">
<path d="M143.952 285.404C135.248 292.457 127.62 283.719 135.244 274.921H138.669C138.669 274.921 136.106 286.609 143.952 285.404Z" fill="white"/>
</mask>
<g mask="url(#mask10_3522_6738)">
<path d="M132.588 283.131C131.418 284.153 132.588 288.064 134.189 288.485C137.461 288.013 143.965 285.715 141.881 281.403C141.292 279.667 140.16 280.084 138.973 280.99C136.974 282.033 134.813 282.761 132.592 283.135L132.588 283.131Z" fill="#9E0EB0"/>
</g>
<path d="M191.391 250.121C191.207 250.414 191.015 250.708 190.818 250.993C190.272 251.798 189.678 252.568 189.05 253.3C188.926 253.445 188.803 253.581 188.674 253.721C188.572 253.836 188.469 253.947 188.363 254.058C187.555 254.922 186.693 255.735 185.775 256.479C185.629 256.603 185.488 256.722 185.339 256.833C184.933 257.156 184.515 257.467 184.088 257.761C183.972 257.85 183.853 257.926 183.733 258.003C183.626 258.084 183.515 258.156 183.4 258.229C183.255 258.327 183.101 258.424 182.951 258.518C182.9 258.548 182.849 258.586 182.798 258.612C182.648 258.705 182.495 258.803 182.341 258.893C182.221 258.965 182.097 259.037 181.973 259.105C181.867 259.165 181.764 259.225 181.653 259.284C181.478 259.382 181.299 259.48 181.119 259.574C181.068 259.603 181.017 259.633 180.961 259.659C180.842 259.723 180.722 259.786 180.603 259.842C180.432 259.931 180.257 260.016 180.081 260.101C179.36 260.45 178.625 260.765 177.878 261.051C175.495 261.953 173.167 262.715 170.921 263.464C161.747 266.507 153.85 269.273 148.516 280.207C147.012 282.467 145.466 284.174 143.955 285.4C136.109 286.6 138.672 274.917 138.672 274.917C141.832 267.814 143.011 274.436 148.405 267.975C152.573 264.741 152.547 257.863 155.054 256.935C157.275 256.118 159.261 254.768 160.495 252.76C165.569 244.494 164.39 234.752 173.539 228.576C175.089 227.529 176.934 226.584 179.155 225.771C179.172 225.763 179.185 225.754 179.202 225.75H179.21C184.228 226.869 185.988 228.185 188.73 230.176C195.905 235.394 195.815 243.034 191.386 250.116L191.391 250.121Z" fill="#FFFBF6"/>
<mask id="mask11_3522_6738" style="mask-type:luminance" maskUnits="userSpaceOnUse" x="138" y="225" width="57" height="61">
<path d="M191.393 250.121C191.209 250.414 191.017 250.708 190.82 250.993C190.274 251.798 189.68 252.568 189.052 253.3C188.928 253.445 188.804 253.581 188.676 253.721C188.574 253.836 188.471 253.947 188.365 254.058C187.557 254.922 186.695 255.735 185.776 256.479C185.631 256.603 185.49 256.722 185.341 256.833C184.935 257.156 184.517 257.467 184.089 257.761C183.974 257.85 183.855 257.926 183.735 258.003C183.628 258.084 183.517 258.156 183.402 258.229C183.257 258.327 183.103 258.424 182.953 258.518C182.902 258.548 182.851 258.586 182.8 258.612C182.65 258.705 182.496 258.803 182.343 258.893C182.223 258.965 182.099 259.037 181.975 259.105C181.869 259.165 181.766 259.225 181.655 259.284C181.48 259.382 181.301 259.48 181.121 259.574C181.07 259.603 181.019 259.633 180.963 259.659C180.844 259.723 180.724 259.786 180.604 259.842C180.434 259.931 180.259 260.016 180.083 260.101C179.362 260.45 178.627 260.765 177.88 261.051C175.497 261.953 173.169 262.715 170.923 263.464C161.749 266.507 153.852 269.273 148.518 280.207C147.014 282.467 145.468 284.174 143.957 285.4C136.111 286.6 138.674 274.917 138.674 274.917C141.834 267.814 143.013 274.436 148.407 267.975C152.575 264.741 152.549 257.863 155.056 256.935C157.277 256.118 159.263 254.768 160.497 252.76C165.571 244.494 164.392 234.752 173.541 228.576C175.091 227.529 176.936 226.584 179.157 225.771C179.174 225.763 179.187 225.754 179.204 225.75H179.212C184.23 226.869 185.99 228.185 188.732 230.176C195.907 235.394 195.817 243.034 191.388 250.116L191.393 250.121Z" fill="white"/>
</mask>
<g mask="url(#mask11_3522_6738)">
<path d="M141.654 286.323C140.646 286.153 139.656 285.681 139.058 284.859C138.37 283.919 138.289 282.676 138.332 281.514C138.383 280.122 138.695 278.543 139.895 277.832C140.911 277.232 142.188 277.479 143.367 277.394C146.16 277.194 148.432 275.091 150.132 272.874C150.666 272.18 151.255 271.406 152.118 271.248C152.596 271.886 152.092 272.763 151.686 273.448C150.841 274.883 150.444 276.526 150.076 278.147C149.709 279.769 149.342 281.416 148.556 282.88C147.185 285.43 144.529 286.809 141.659 286.323H141.654Z" fill="#FAD68C"/>
</g>
<path d="M263.453 204.72C263.325 209.262 260.336 214.475 253.425 213.667C251.337 213.42 249.214 211.254 246.818 209.615C244.132 207.776 243.03 207.542 240.741 207.176C240.694 205.95 240.711 204.784 240.788 203.703C239.259 200.941 237.358 196.697 235.428 192.365C233.498 191.922 231.597 191.867 229.983 192.454C229.065 192.786 228.428 193.403 227.993 194.195C227.817 192.914 227.775 191.722 227.852 190.735C225.857 186.525 226.818 182.358 229.308 179.315C230.209 178.217 231.302 177.264 232.532 176.506C234.856 175.072 237.657 174.336 240.48 174.638C242.163 174.817 243.85 175.366 245.46 176.357C262.206 189.27 251.311 187.019 256.769 195.353C260.447 200.502 263.556 197.97 263.449 204.72H263.453Z" fill="#FFFBF6"/>
<mask id="mask12_3522_6738" style="mask-type:luminance" maskUnits="userSpaceOnUse" x="226" y="174" width="38" height="40">
<path d="M263.455 204.72C263.327 209.262 260.338 214.475 253.427 213.667C251.339 213.42 249.216 211.254 246.82 209.615C244.134 207.776 243.032 207.542 240.743 207.176C240.696 205.95 240.713 204.784 240.79 203.703C239.261 200.941 237.36 196.697 235.43 192.365C233.5 191.922 231.599 191.867 229.985 192.454C229.066 192.786 228.43 193.403 227.995 194.195C227.819 192.914 227.777 191.722 227.854 190.735C225.859 186.525 226.82 182.358 229.31 179.315C230.211 178.217 231.304 177.264 232.534 176.506C234.858 175.072 237.659 174.336 240.482 174.638C242.165 174.817 243.852 175.366 245.462 176.357C262.208 189.27 251.313 187.019 256.771 195.353C260.449 200.502 263.558 197.97 263.451 204.72H263.455Z" fill="white"/>
</mask>
<g mask="url(#mask12_3522_6738)">
<path d="M238.872 173.106C238.24 173.825 238.782 174.451 239.337 174.983C239.534 175.174 239.995 175.417 240.059 175.698C240.149 176.085 239.696 176.345 239.73 176.728C239.747 176.911 239.897 177.051 240.029 177.175C241.678 178.724 242.481 180.937 243.339 183.027C243.741 184.006 244.189 185.006 244.962 185.734C245.671 186.398 246.594 186.781 247.431 187.275C249.412 188.441 250.924 190.241 252.509 191.91C252.842 192.263 253.235 192.633 253.717 192.646C253.816 192.646 254.379 187.9 254.478 187.411C254.858 185.551 255.276 183.61 254.798 181.725C254.589 180.903 254.221 180.133 253.854 179.371C253.128 177.86 252.393 176.341 251.368 175.013C250.685 174.127 249.882 173.34 249.075 172.565C248.272 171.795 247.431 171.012 246.389 170.612C245.022 170.088 243.984 170.727 242.694 171.02C241.272 171.344 239.841 171.995 238.863 173.106H238.872Z" fill="#FAD68C"/>
</g>
<path fill-rule="evenodd" clip-rule="evenodd" d="M270.715 156.608C270.715 156.634 270.626 156.817 270.506 157.038C269.716 158.668 268.242 162.133 266.82 163.372V163.363C267.145 161.997 267.252 160.494 267.44 158.979C267.457 158.89 267.465 158.817 267.465 158.754C267.465 158.754 267.465 158.751 267.465 158.745V158.72C267.465 158.69 267.474 158.66 267.474 158.63C267.504 158.005 267.555 157.877 268.465 157.413C268.734 157.264 270.694 156.57 270.715 156.604V156.608Z" fill="#FFB409"/>
<path fill-rule="evenodd" clip-rule="evenodd" d="M267.475 158.634C267.475 158.66 267.475 158.681 267.466 158.711C267.466 158.724 267.466 158.741 267.466 158.753C267.466 158.817 267.458 158.894 267.441 158.979C267.248 160.494 267.146 161.997 266.821 163.363V163.35C266.74 163.695 266.646 164.027 266.535 164.355C266.488 164.499 266.437 164.635 266.377 164.772C266.347 164.853 266.313 164.929 266.279 165.006C266.134 165.338 265.959 165.653 265.749 165.955C265.694 166.04 265.638 166.117 265.574 166.198C265.506 166.287 265.438 166.368 265.369 166.453C265.292 166.542 265.216 166.627 265.13 166.712C265.058 166.789 264.985 166.861 264.904 166.93C264.87 166.964 264.831 166.998 264.793 167.027C264.754 167.062 264.716 167.096 264.677 167.121C264.609 167.181 264.541 167.232 264.472 167.283C264.425 167.321 264.374 167.359 264.323 167.389C264.306 167.406 264.293 167.415 264.28 167.419C264.178 167.496 264.071 167.564 263.96 167.628C263.849 167.691 263.729 167.764 263.605 167.828C264.152 165.653 263.699 163.393 263.951 161.392C264.007 161.111 264.041 160.873 264.028 160.856C264.336 159.686 265.04 158.975 266.535 158.596C266.962 158.468 267.231 158.345 267.372 158.387C267.394 158.387 267.407 158.4 267.419 158.413C267.441 158.43 267.449 158.447 267.462 158.473C267.475 158.502 267.483 158.532 267.483 158.57C267.483 158.592 267.492 158.609 267.492 158.634H267.475Z" fill="#EF4180"/>
<path fill-rule="evenodd" clip-rule="evenodd" d="M263.939 161.397C263.687 163.397 264.14 165.657 263.593 167.832C263.047 170.011 261.509 172.101 259.686 173.293C259.903 172.361 259.993 171.399 260.019 170.446C260.019 169.36 259.976 168.279 259.929 167.19C259.916 166.845 259.899 166.504 259.891 166.16C259.848 164.955 259.963 164.146 260.04 164.1C260.108 163.883 260.194 163.666 260.305 163.465C260.335 163.402 260.373 163.338 260.412 163.278C260.476 163.168 260.548 163.061 260.629 162.955C260.659 162.912 260.693 162.865 260.732 162.823C260.817 162.721 260.907 162.619 261.005 162.521C261.065 162.461 261.129 162.406 261.193 162.35C261.257 162.291 261.326 162.235 261.398 162.184C261.445 162.15 261.492 162.108 261.543 162.074C261.637 162.001 261.744 161.933 261.847 161.869C262.312 161.61 263.965 160.822 264.012 160.861C264.025 160.878 263.991 161.116 263.935 161.397H263.939Z" fill="#FFB409"/>
<path fill-rule="evenodd" clip-rule="evenodd" d="M259.927 167.189C259.97 168.279 260.017 169.36 260.017 170.445C259.987 171.403 259.902 172.36 259.684 173.292C259.611 173.607 259.526 173.914 259.419 174.216C259.005 175.42 258.317 176.506 257.442 177.429C257.151 177.736 256.839 178.021 256.519 178.293C256.348 178.438 256.173 178.578 255.994 178.719C255.895 178.791 255.477 179.051 255.379 179.123C255.784 176.612 254.845 173.633 255.144 170.415C255.204 169.743 255.592 168.768 255.844 168.198C255.853 168.176 255.866 168.155 255.87 168.134C255.968 167.921 256.041 167.772 256.054 167.747H256.041C256.075 167.666 256.118 167.589 256.16 167.508C256.199 167.427 256.246 167.351 256.293 167.274C256.331 167.202 256.378 167.134 256.425 167.066C256.438 167.044 256.451 167.027 256.468 167.006C256.506 166.942 256.553 166.883 256.596 166.823C256.622 166.789 256.647 166.746 256.681 166.712C256.711 166.678 256.737 166.64 256.771 166.602C256.895 166.448 257.036 166.291 257.185 166.142C257.254 166.074 257.322 166.006 257.39 165.942C257.45 165.887 257.514 165.831 257.578 165.776C257.672 165.691 257.77 165.61 257.873 165.529C257.963 165.461 258.048 165.389 258.138 165.325C258.27 165.227 258.411 165.12 258.56 165.023C258.654 164.954 258.753 164.886 258.855 164.823C259.21 164.588 259.603 164.346 260.042 164.095C259.961 164.137 259.846 164.946 259.893 166.155C259.906 166.499 259.923 166.84 259.931 167.185L259.927 167.189Z" fill="#EF4180"/>
<path fill-rule="evenodd" clip-rule="evenodd" d="M256.05 167.747C256.037 167.777 255.965 167.922 255.867 168.134C255.867 168.156 255.85 168.177 255.841 168.198C255.589 168.769 255.2 169.747 255.141 170.416C254.842 173.633 255.781 176.613 255.375 179.124V179.102C255.153 180.507 254.389 181.843 252.881 182.92C252.86 182.873 252.839 182.827 252.809 182.78C252.655 182.541 252.459 182.273 252.249 181.98C250.421 179.439 249.768 176.242 250.43 173.195C250.46 173.05 250.49 172.931 250.507 172.863C251.288 170.675 253.009 169.19 255.124 168.16C255.422 168.015 255.726 167.883 256.033 167.756H256.046L256.05 167.747Z" fill="#FFB409"/>
<path fill-rule="evenodd" clip-rule="evenodd" d="M250.9 186.283C250.25 186.657 246.326 185.019 244.852 182.665C243.981 181.273 243.857 179.886 244.25 178.588C244.28 178.498 244.305 178.405 244.34 178.315C244.369 178.226 244.408 178.132 244.442 178.047C245.352 175.893 247.641 174.046 250.152 172.944C250.255 172.897 250.361 172.855 250.468 172.808C250.468 172.808 250.502 172.791 250.519 172.782C250.519 172.782 250.519 172.812 250.502 172.859C250.485 172.927 250.46 173.046 250.425 173.191C249.764 176.242 250.417 179.439 252.245 181.976C252.454 182.269 252.651 182.537 252.804 182.776C252.834 182.818 252.856 182.865 252.877 182.916C252.894 182.946 252.907 182.984 252.911 183.018C252.924 183.052 252.932 183.095 252.937 183.133C253.061 184.027 252.083 185.449 250.895 186.278L250.9 186.283Z" fill="#EF4180"/>
<path d="M240.484 174.642C239.95 176.681 238.613 178.405 236.111 179.413C236.111 179.503 235.743 179.618 235.671 179.575C234.488 179.064 233.181 177.911 232.536 176.511C232.361 176.132 232.233 175.74 232.169 175.336C231.981 174.14 232.015 173.025 232.194 171.965C232.69 169.062 234.304 166.585 235.637 163.98C236.196 162.891 237.755 162.878 238.34 163.955C240.121 167.232 241.351 171.348 240.484 174.642Z" fill="#FFFBF6"/>
<path d="M235.96 177.996C233.06 177.353 236.404 162.363 238.13 168.922C238.13 168.922 239.924 178.873 235.96 177.996Z" fill="#FFB409"/>
<path d="M165.222 288.455C165.193 288.464 165.158 288.472 165.133 288.476" stroke="#332933" stroke-width="1.11956" stroke-linecap="round" stroke-linejoin="round"/>
<path d="M245.472 191.075C245.472 191.603 245.374 192.109 245.186 192.573C244.605 194.016 243.191 195.038 241.53 195.046C239.339 195.059 237.554 193.305 237.541 191.122C237.541 190.764 237.584 190.415 237.669 190.088C238.118 188.407 239.651 187.159 241.479 187.151C243.67 187.138 245.455 188.896 245.468 191.079L245.472 191.075Z" fill="#FFB409"/>
<path d="M245.472 191.075C245.472 191.603 245.374 192.109 245.186 192.573C244.605 194.016 243.191 195.038 241.53 195.046C239.339 195.059 237.554 193.305 237.541 191.122C237.541 190.764 237.584 190.415 237.669 190.088C238.118 188.407 239.651 187.159 241.479 187.151C243.67 187.138 245.455 188.896 245.468 191.079L245.472 191.075Z" stroke="#332933" stroke-width="1.11956" stroke-linecap="round" stroke-linejoin="round"/>
<path d="M241.503 193.527C242.85 193.527 243.942 192.438 243.942 191.096C243.942 189.754 242.85 188.666 241.503 188.666C240.156 188.666 239.064 189.754 239.064 191.096C239.064 192.438 240.156 193.527 241.503 193.527Z" fill="#332933"/>
<path d="M245.334 191.445C245.287 191.969 245.138 192.467 244.903 192.91C244.766 192.003 244.36 191.16 243.745 190.484C243.212 189.896 242.524 189.437 241.712 189.173C241.226 189.011 240.726 188.939 240.239 188.943C239.317 188.943 238.42 189.219 237.668 189.713C238.279 188.083 239.923 186.989 241.747 187.16C243.925 187.36 245.535 189.283 245.334 191.454V191.445Z" fill="#332933"/>
<path d="M243.418 191.841C243.934 191.841 244.353 191.423 244.353 190.909C244.353 190.394 243.934 189.977 243.418 189.977C242.901 189.977 242.482 190.394 242.482 190.909C242.482 191.423 242.901 191.841 243.418 191.841Z" fill="#FFFBF6"/>
<path d="M255.323 203.073C256.672 203.209 257.018 204.758 257.095 206.073C257.104 206.261 256.877 206.341 256.749 206.205C256.139 205.541 254.93 205.367 254.597 204.396C254.447 204.043 254.353 203.647 254.101 203.358C253.999 203.239 254.093 203.047 254.251 203.039C254.635 203.022 255.178 203.073 255.323 203.073Z" fill="#332933"/>
<path d="M258.277 205.328C258.175 204.711 258.068 204.09 257.825 203.511C257.581 202.936 257.188 202.4 256.637 202.102C255.975 201.745 255.185 201.762 254.434 201.787" stroke="#332933" stroke-width="1.11956" stroke-linecap="round" stroke-linejoin="round"/>
<path d="M261.49 208.857C261.136 209.109 257.762 211.254 254.14 209.713C251.642 208.649 249.844 207.176 249.844 207.176C251.667 210.036 253.213 212.462 257.091 212.062C260.025 211.76 261.495 208.857 261.495 208.857" fill="#F0C2C2"/>
<path d="M232.535 176.51C231.305 177.268 230.212 178.221 229.311 179.319C228.213 180.366 227.274 181.452 226.454 182.575C213.27 187.202 214.175 195.442 213.201 202.209C210.596 183.742 219.317 171.965 232.172 171.965H232.194C232.014 173.025 231.984 174.14 232.168 175.336C232.232 175.74 232.36 176.132 232.535 176.51Z" fill="#EF4180"/>
<path d="M226.449 182.575C219.962 191.458 221.128 202.417 213.009 212.411C211.04 213.747 206.547 213.645 205.834 211.738C211.335 209.857 212.612 206.303 213.197 202.209C214.166 195.437 213.265 187.197 226.449 182.571V182.575Z" fill="#BC56BA"/>
<path d="M202.738 236.258C202.632 236.407 202.521 236.556 202.409 236.705L200.321 239.386C200.274 239.446 200.227 239.497 200.18 239.552V239.561C199.411 240.395 198.271 240.718 197.225 240.463C197.126 240.437 197.028 240.412 196.934 240.378C196.558 240.246 196.195 240.029 195.879 239.735C194.897 238.824 194.705 237.369 195.269 236.19C195.363 235.99 195.482 235.803 195.619 235.624L197.643 233.028C197.643 233.028 197.669 232.993 197.686 232.976C199.548 230.525 198.711 226.98 196.016 225.481L193.65 224.166C191.485 222.962 190.259 220.625 190.908 218.242C190.861 218.131 190.883 218.34 190.908 218.242C191.207 217.02 197.05 216.548 198.54 218.612L201.607 221.91C205.279 225.86 205.843 231.866 202.73 236.262L202.738 236.258Z" fill="url(#paint4_linear_3522_6738)"/>
<path d="M190.908 218.242C190.259 220.625 191.485 222.962 193.65 224.166L196.016 225.481C198.711 226.98 199.548 230.525 197.686 232.976C197.669 232.993 197.643 233.028 197.643 233.028L195.619 235.624C195.482 235.803 195.363 235.99 195.269 236.19C194.705 237.369 194.897 238.824 195.879 239.735C196.195 240.029 196.558 240.246 196.934 240.378C197.028 240.412 197.126 240.437 197.225 240.463C198.271 240.718 199.411 240.395 200.18 239.561V239.552C200.227 239.497 200.274 239.446 200.321 239.386L202.409 236.705C202.521 236.556 202.632 236.407 202.738 236.258L202.73 236.262C205.843 231.866 205.279 225.86 201.607 221.91L198.54 218.612C197.05 216.548 191.207 217.02 190.908 218.242ZM190.908 218.242C190.861 218.131 190.883 218.34 190.908 218.242Z" stroke="#332933" stroke-width="1.11956" stroke-linejoin="round"/>
<path d="M200.029 241.123C199.765 241.544 199.329 241.817 198.787 241.94C198.787 241.94 198.784 241.94 198.778 241.94C198.368 241.927 197.958 241.944 197.569 241.983C196.886 241.897 196.147 241.634 195.443 241.204C194.691 240.748 194.101 240.161 193.713 239.548L193.691 239.514L193.397 238.935C193.132 238.263 193.128 237.603 193.452 237.084C193.798 236.518 194.465 236.224 195.267 236.19C194.704 237.369 194.896 238.824 195.878 239.735C196.194 240.029 196.557 240.242 196.933 240.378C197.027 240.412 197.125 240.442 197.223 240.463C198.27 240.718 199.41 240.395 200.175 239.561V239.552C200.345 240.123 200.307 240.672 200.029 241.119V241.123Z" fill="url(#paint5_linear_3522_6738)" stroke="#332933" stroke-width="1.11956" stroke-linejoin="round"/>
<path d="M193.693 239.513C193.578 239.322 193.475 239.13 193.398 238.935L193.693 239.513Z" fill="#332933"/>
<path d="M200.052 248.4C198.502 248.417 194.833 246.945 192.924 244.476C189.691 240.305 193.402 238.935 193.402 238.935C193.479 239.13 193.578 239.322 193.697 239.513L193.719 239.547C194.107 240.16 194.697 240.743 195.448 241.203C196.153 241.637 196.892 241.897 197.575 241.982C197.959 241.948 198.369 241.927 198.784 241.944C198.784 241.944 198.787 241.944 198.792 241.944C200.603 241.999 202.469 242.65 202.764 245.021C202.875 245.94 202.995 248.375 200.056 248.405L200.052 248.4Z" fill="url(#paint6_linear_3522_6738)" stroke="#332933" stroke-width="1.11956" stroke-linejoin="round"/>
<path d="M193.693 239.513C193.578 239.322 193.475 239.13 193.398 238.935L193.693 239.513Z" fill="#332933"/>
<path d="M239.069 248.44C239.129 248.274 239.62 245.175 239.142 243.175C239.441 242.277 239.637 241.545 239.641 241.106C239.68 236.548 239.513 233.752 238.206 229.385C237.493 227.006 236.447 224.737 235.426 222.469C233.743 218.723 232.121 214.948 230.57 211.143C229.844 209.381 229.135 207.61 228.61 205.776C227.863 203.209 226.308 197.319 227.995 194.199C228.691 199.26 231.48 205.729 237.13 206.542C238.663 206.857 239.799 207.032 240.739 207.176C240.944 212.999 242.482 220.204 244.596 226.086C247.158 233.224 246.005 241.123 238.839 249.218C238.907 248.959 238.984 248.703 239.069 248.44Z" fill="#FAD68C"/>
<path d="M228.641 250.525C228.184 251.64 227.432 253.104 226.792 254.632C215.111 257.19 200.552 255.181 188.367 254.062C188.47 253.951 188.572 253.841 188.679 253.726C188.807 253.585 188.931 253.449 189.055 253.304C189.683 252.572 190.276 251.802 190.823 250.998C192.668 251.423 195.273 251.904 198.784 252.317C201.901 252.687 206.288 251.925 210.563 250.823C214.146 254.236 219.766 252.708 226.758 249.155C226.788 249.138 226.826 249.121 226.856 249.104C229.367 247.848 229.393 248.733 228.645 250.534L228.641 250.525Z" fill="#FAD68C"/>
<path d="M261.574 202.269C263.47 201.107 261.919 206.686 260.651 206.733C259.703 206.24 259.733 204.839 259.075 204.077C256.705 201.409 260.57 203.439 261.569 202.273L261.574 202.269Z" fill="#FAD68C"/>
<path d="M256.623 168.943C256.794 168.173 257.277 167.223 258.097 167.006C258.802 168.083 257.157 169.36 257.268 170.577C257.247 170.816 257.17 170.96 256.944 170.782C256.448 170.39 256.529 169.479 256.623 168.943Z" fill="#F2789A"/>
<path d="M252.284 171.433C252.831 170.117 255.41 169.16 253.809 171.36C253.155 171.982 253.429 172.714 253.01 173.467C252.207 174.91 251.69 172.165 252.284 171.437V171.433Z" fill="#FAD68C"/>
<path d="M260.842 164.427C260.996 163.742 261.423 162.895 262.153 162.703C262.781 163.665 261.316 164.797 261.415 165.882C261.393 166.095 261.329 166.223 261.128 166.065C260.689 165.716 260.757 164.908 260.842 164.427Z" fill="#FAD68C"/>
<path d="M264.869 160.686C265.091 160.158 265.561 159.541 266.172 159.49C266.535 160.349 265.194 161.052 265.117 161.937C265.07 162.103 264.997 162.201 264.861 162.043C264.558 161.703 264.733 161.06 264.869 160.686Z" fill="#F2789A"/>
<path d="M223.294 178.643C221.855 179.579 220.561 180.724 219.404 181.984C219.088 182.324 218.784 182.678 218.49 183.035C216.965 184.882 215.637 186.921 214.582 189.07C214.509 189.219 214.402 189.381 214.355 189.547C215.406 186.027 216.773 182.405 219.105 179.515C219.895 178.532 220.804 177.647 221.808 176.876C222.812 176.106 223.841 175.489 224.964 174.987C225.336 174.821 225.724 174.663 226.13 174.655C226.792 174.638 227.3 175.106 227.552 175.685C227.642 175.893 227.702 176.132 227.625 176.349C227.544 176.574 227.326 176.727 227.104 176.821" fill="#F2789A"/>
<path d="M142.873 231.836C145.927 227.307 152.333 225.733 157.36 227.575C157.958 227.831 158.564 228.099 159.132 228.41C158.752 228.401 158.385 228.371 158.022 228.342C152.713 227.729 147.387 228.92 142.873 231.836Z" fill="#FAD68C"/>
<path d="M208.166 247.056C211.284 254.892 217.921 253.64 226.753 249.15C226.783 249.133 226.821 249.116 226.851 249.099C229.362 247.844 229.388 248.729 228.64 250.529C228.183 251.644 227.432 253.108 226.791 254.636C219.437 256.245 210.942 256.045 202.614 255.398C200.871 255.258 199.137 255.105 197.425 254.943C194.32 254.649 191.279 254.33 188.375 254.066" stroke="#332933" stroke-width="1.11956" stroke-linecap="round" stroke-linejoin="round"/>
<path d="M240.739 207.176C240.948 212.999 242.481 220.204 244.595 226.086C246.201 230.551 246.21 235.246 244.903 239.502C243.801 243.094 241.755 246.367 238.924 248.925C238.966 248.763 239.013 248.606 239.069 248.44C239.141 248.235 239.863 243.588 238.633 242.017C238.202 241.468 237.642 241.094 236.963 240.821C234.768 239.94 231.394 240.191 227.73 239.451C227.473 239.4 227.221 239.357 226.961 239.314" stroke="#332933" stroke-width="1.11956" stroke-linecap="round" stroke-linejoin="round"/>
<path d="M201.803 222.123C205.313 220.651 208.798 218.033 212.33 213.224C222.286 201.762 219.279 188.904 229.307 179.319" stroke="#332933" stroke-width="1.11956" stroke-linecap="round" stroke-linejoin="round"/>
<path d="M193.368 223.997C188.862 224.397 184.199 224.307 179.219 225.754" stroke="#332933" stroke-width="1.11956" stroke-linecap="round" stroke-linejoin="round"/>
<path d="M245.465 176.361C243.854 175.369 242.163 174.82 240.48 174.642" stroke="#332933" stroke-width="1.11956" stroke-linecap="round" stroke-linejoin="round"/>
<path d="M232.535 176.511C231.305 177.268 230.207 178.222 229.311 179.32" stroke="#332933" stroke-width="1.11956" stroke-linecap="round" stroke-linejoin="round"/>
<path d="M215.765 242.259C218.934 239.757 222.995 238.735 226.967 239.318C227.228 239.357 227.48 239.403 227.736 239.455C231.4 240.191 234.774 239.944 236.969 240.825C237.644 241.093 238.208 241.472 238.639 242.021C239.869 243.592 239.143 248.239 239.075 248.444C239.019 248.605 238.972 248.763 238.93 248.929C238.648 249.882 238.494 250.797 238.421 251.717C238.067 256.007 239.37 260.357 237.324 268.869C236.666 271.601 235.47 275.581 233.13 280.22C229.679 278.483 223.567 271.699 222.124 267.422C222.359 265.821 224.891 262.34 226.484 261.582C224.943 260.02 225.711 257.232 226.805 254.636C227.445 253.108 228.197 251.644 228.654 250.529C229.397 248.733 229.376 247.848 226.865 249.099C226.835 249.116 226.796 249.133 226.766 249.15C217.939 253.64 211.297 254.892 208.18 247.056" stroke="#332933" stroke-width="1.11956" stroke-linecap="round" stroke-linejoin="round"/>
<path d="M202.61 255.393C200.299 258.373 197.314 260.811 193.919 262.548C183.182 268.051 173.466 270.017 168.721 283.301C160.905 298.482 148.682 290.234 155.896 279.764L159.064 279.415C161.26 272.511 163.032 278.525 167.354 271.988C169.759 269.651 170.181 265.944 170.916 263.467C173.167 262.722 175.49 261.956 177.873 261.054C178.621 260.769 179.359 260.454 180.077 260.105C180.252 260.02 180.427 259.939 180.598 259.845C180.718 259.79 180.837 259.726 180.957 259.662C181.012 259.637 181.064 259.611 181.115 259.577C181.294 259.483 181.474 259.385 181.649 259.288C181.755 259.228 181.858 259.168 181.969 259.109C182.093 259.036 182.217 258.964 182.336 258.896C182.49 258.807 182.644 258.709 182.793 258.615C182.844 258.585 182.896 258.551 182.947 258.521C183.096 258.428 183.25 258.33 183.395 258.232C183.511 258.16 183.622 258.087 183.729 258.006C183.848 257.93 183.968 257.849 184.083 257.764C184.51 257.47 184.929 257.16 185.334 256.836C185.48 256.725 185.625 256.606 185.77 256.483C186.684 255.738 187.551 254.925 188.358 254.061C191.262 254.325 194.303 254.644 197.408 254.938C199.125 255.1 200.855 255.257 202.597 255.393H202.61Z" stroke="#332933" stroke-width="1.11956" stroke-linecap="round" stroke-linejoin="round"/>
<path d="M192.908 247.299C192.481 248.244 191.972 249.188 191.392 250.121C190.691 251.244 189.905 252.308 189.051 253.3C188.927 253.445 188.803 253.581 188.675 253.721C188.573 253.836 188.47 253.947 188.364 254.058C187.556 254.922 186.694 255.734 185.775 256.479C185.63 256.603 185.489 256.722 185.34 256.833C184.934 257.156 184.516 257.467 184.088 257.76C183.973 257.846 183.854 257.926 183.734 258.003C183.627 258.084 183.516 258.156 183.401 258.229C183.256 258.326 183.102 258.424 182.952 258.518C182.901 258.548 182.85 258.586 182.799 258.612C182.649 258.705 182.495 258.803 182.342 258.893C182.222 258.965 182.098 259.037 181.974 259.105C181.868 259.165 181.765 259.224 181.654 259.284C181.479 259.382 181.3 259.48 181.12 259.573C181.069 259.603 181.018 259.633 180.962 259.659C180.843 259.722 180.723 259.786 180.603 259.842C180.433 259.931 180.258 260.016 180.082 260.101C179.361 260.45 178.626 260.765 177.879 261.05C175.496 261.953 173.168 262.715 170.922 263.464C161.748 266.507 153.851 269.273 148.517 280.207C138.361 295.487 126.296 285.242 135.247 274.917H138.673C141.833 267.813 143.012 274.436 148.406 267.975C152.574 264.74 152.548 257.863 155.06 256.935C157.28 256.118 159.262 254.768 160.501 252.755C165.574 244.49 164.396 234.752 173.544 228.572C173.71 228.461 173.877 228.35 174.052 228.24C175.491 227.325 177.178 226.495 179.16 225.767C179.16 225.767 179.173 225.767 179.177 225.758C179.19 225.758 179.198 225.75 179.207 225.746H179.22" stroke="#332933" stroke-width="1.11956" stroke-linecap="round" stroke-linejoin="round"/>
<path d="M168.17 234.079C167.82 234.636 167.495 235.211 167.2 235.794C153.141 236.747 155.421 245.221 147.384 253.636C135.754 263.472 114.409 253.534 123.967 235.786C120.311 243.025 124.586 252.976 135.088 251.41C145.616 249.852 143.98 235.356 153.739 232.466C159.427 230.444 165.479 232.674 168.174 234.079H168.17Z" stroke="#332933" stroke-width="1.11956" stroke-linecap="round" stroke-linejoin="round"/>
<path d="M134.994 238.965C133.888 240.306 132.88 241.745 131.992 243.255C126.901 249.406 121.452 240.932 124.125 235.484C124.07 235.582 124.018 235.684 123.967 235.782C120.311 243.021 124.586 252.972 135.088 251.406C145.616 249.848 143.98 235.352 153.739 232.462C159.428 230.44 165.48 232.67 168.175 234.075L168.427 233.696C168.666 233.339 168.922 232.981 169.191 232.632" stroke="#332933" stroke-width="1.11956" stroke-linecap="round" stroke-linejoin="round"/>
<path d="M128.99 233.581C129.046 233.9 129.11 234.202 129.178 234.492C129.093 234.224 129.033 233.917 128.99 233.581Z" stroke="#332933" stroke-width="1.11956" stroke-linecap="round" stroke-linejoin="round"/>
<path d="M169.652 232.053C169.494 232.249 169.332 232.441 169.187 232.636C168.918 232.985 168.662 233.343 168.422 233.7C155.332 224.022 142.447 237.131 134.995 238.97C132.201 239.659 130.169 238.765 129.178 234.501C130.455 238.791 136.366 234.982 140.508 230.572C144.467 226.359 158.403 221.268 169.652 232.058V232.053Z" stroke="#332933" stroke-width="1.11956" stroke-linecap="round" stroke-linejoin="round"/>
<path d="M267.47 158.724C267.5 158.026 267.513 157.902 268.461 157.421C268.73 157.268 270.69 156.578 270.711 156.613C270.72 156.621 270.622 156.813 270.502 157.042C269.708 158.668 268.239 162.133 266.816 163.376" stroke="#332933" stroke-width="1.11956" stroke-linecap="round" stroke-linejoin="round"/>
<path d="M264.017 160.86C264.32 159.69 265.024 158.979 266.524 158.6C267.331 158.362 267.57 158.132 267.442 158.983C266.993 162.545 267.01 166.048 263.594 167.832" stroke="#332933" stroke-width="1.11956" stroke-linecap="round" stroke-linejoin="round"/>
<path d="M259.981 164.304C260.228 163.325 260.813 162.516 261.851 161.865C262.317 161.61 263.97 160.818 264.017 160.856C264.025 160.873 263.995 161.112 263.94 161.393C263.688 163.393 264.136 165.649 263.589 167.828C263.043 170.007 261.505 172.097 259.682 173.289" stroke="#332933" stroke-width="1.11956" stroke-linecap="round" stroke-linejoin="round"/>
<path d="M255.845 168.202C256.426 166.687 257.434 165.593 260.039 164.099C259.962 164.142 259.843 164.955 259.885 166.159C259.898 166.504 259.915 166.849 259.928 167.193C259.971 168.283 260.013 169.364 260.013 170.449C259.979 171.722 259.834 173.007 259.416 174.22C259.001 175.425 258.318 176.51 257.438 177.434C257.148 177.74 256.84 178.025 256.516 178.298C256.345 178.442 256.165 178.583 255.986 178.723C255.888 178.796 255.469 179.055 255.371 179.128" stroke="#332933" stroke-width="1.11956" stroke-linecap="round" stroke-linejoin="round"/>
<path d="M250.508 172.859C251.4 170.36 253.523 168.773 256.056 167.743C256.056 167.743 255.236 169.42 255.142 170.42C254.676 175.451 257.23 179.89 252.955 182.882" stroke="#332933" stroke-width="1.11956" stroke-linecap="round" stroke-linejoin="round"/>
<path fill-rule="evenodd" clip-rule="evenodd" d="M250.435 173.194C249.773 176.246 250.426 179.442 252.25 181.983C252.459 182.277 252.656 182.545 252.814 182.783C253.356 183.596 252.263 185.333 250.901 186.286C250.256 186.661 246.326 185.022 244.853 182.673C242.303 178.604 246.173 174.565 250.525 172.79C250.525 172.79 250.491 172.948 250.435 173.199V173.194Z" stroke="#332933" stroke-width="1.11956" stroke-linecap="round" stroke-linejoin="round"/>
<path d="M235.666 179.575C234.167 178.924 232.468 177.242 232.169 175.336C231.473 170.854 233.813 167.534 235.632 163.98C236.192 162.886 237.751 162.874 238.336 163.955C240.527 167.994 241.885 173.31 239.519 176.783" stroke="#332933" stroke-width="1.11956" stroke-linecap="round" stroke-linejoin="round"/>
<path d="M238.131 168.922C236.405 162.364 233.194 176.92 235.961 177.996" stroke="#332933" stroke-width="1.11956" stroke-linecap="round" stroke-linejoin="round"/>
<path d="M248.24 259.909C248.24 259.909 252.391 266.932 259.895 265.28" stroke="#332933" stroke-width="1.11956" stroke-linecap="round" stroke-linejoin="round"/>
<path d="M138.671 274.917C138.671 274.917 136.104 286.604 143.95 285.4" stroke="#332933" stroke-width="1.11956" stroke-linecap="round" stroke-linejoin="round"/>
<path d="M159.226 279.045C159.226 279.045 157.804 290.349 165.223 288.455" stroke="#332933" stroke-width="1.11956" stroke-linecap="round" stroke-linejoin="round"/>
<path d="M253.116 183.119C258.101 188.797 252.557 188.92 256.772 195.351C260.454 200.501 263.559 197.973 263.452 204.719C263.324 209.26 260.334 214.474 253.424 213.666C251.336 213.419 249.213 211.257 246.817 209.614C243.024 207.017 242.38 207.622 237.126 206.541C230.041 205.528 227.462 195.611 227.85 190.742" stroke="#332933" stroke-width="1.11956" stroke-linecap="round" stroke-linejoin="round"/>
<path d="M262.844 208.028C262.443 208.394 257.762 211.249 254.14 209.713C251.642 208.649 249.844 207.176 249.844 207.176C251.667 210.036 253.213 212.462 257.091 212.062C260.025 211.76 261.495 208.857 261.495 208.857" fill="#F2789A"/>
<path d="M262.844 208.028C262.443 208.394 257.762 211.249 254.14 209.713C251.642 208.649 249.844 207.176 249.844 207.176C251.667 210.036 253.213 212.462 257.091 212.062C260.025 211.76 261.495 208.857 261.495 208.857" stroke="#332933" stroke-width="1.11956" stroke-linecap="round" stroke-linejoin="round"/>
<path d="M256.592 178.226C258.536 180.873 261.209 183.218 265.527 184.154C265.557 184.154 258.032 185.431 253.176 183.333" stroke="#332933" stroke-width="1.11956" stroke-linecap="round" stroke-linejoin="round"/>
<path d="M251.989 170.411C249.901 165.878 242.192 166.354 240.77 172.611" stroke="#332933" stroke-width="1.11956" stroke-linecap="round" stroke-linejoin="round"/>
<path d="M247.71 171.59C246.408 169.748 243.435 170.011 241.936 171.697C241.129 172.603 240.808 173.642 240.988 175.17C241.543 179.847 252.271 178.766 254.71 175.093C252.741 174.795 250.059 174.915 247.71 171.59Z" fill="#EF4180"/>
<path d="M247.71 171.59C246.408 169.748 243.435 170.011 241.936 171.697C241.129 172.603 240.808 173.642 240.988 175.17C241.543 179.847 252.271 178.766 254.71 175.093C252.741 174.795 250.059 174.915 247.71 171.59Z" stroke="#332933" stroke-width="1.11956" stroke-linecap="round" stroke-linejoin="round"/>
<path d="M232.174 171.965C219.31 171.965 210.593 183.754 213.203 202.235" stroke="#332933" stroke-width="1.11956" stroke-linecap="round" stroke-linejoin="round"/>
<path d="M226.453 182.576C205.283 189.998 220.436 206.751 205.838 211.743C206.555 213.646 211.044 213.748 213.017 212.411" stroke="#332933" stroke-width="1.11956" stroke-linecap="round" stroke-linejoin="round"/>
<path d="M197.225 240.463C196.742 240.344 196.277 240.106 195.879 239.735C194.726 238.667 194.658 236.862 195.623 235.624L197.648 233.023C197.648 233.023 197.673 232.989 197.69 232.968C199.557 230.521 198.715 226.971 196.02 225.473L193.654 224.158C191.878 223.17 190.776 221.255 190.797 219.28C190.806 218.501 191.352 217.833 192.113 217.654C193.693 217.28 196.593 216.922 198.553 218.604L201.619 221.902C205.288 225.848 205.856 231.861 202.743 236.258C202.636 236.407 202.525 236.556 202.414 236.705L200.325 239.386C199.574 240.352 198.348 240.736 197.229 240.463H197.225Z" stroke="#332933" stroke-width="1.11956" stroke-linecap="round" stroke-linejoin="round"/>
<path d="M200.18 239.552C200.342 240.123 200.308 240.672 200.031 241.119C199.766 241.54 199.33 241.812 198.788 241.936C198.788 241.936 198.788 241.936 198.779 241.936" stroke="#332933" stroke-width="1.11956" stroke-linecap="round" stroke-linejoin="round"/>
<path d="M197.573 241.983C196.89 241.898 196.151 241.634 195.446 241.204C194.442 240.591 193.729 239.757 193.405 238.94C193.14 238.268 193.136 237.608 193.46 237.089C193.806 236.523 194.472 236.229 195.275 236.195" stroke="#332933" stroke-width="1.11956" stroke-linecap="round" stroke-linejoin="round"/>
<path d="M195.178 242.443C195.178 242.443 202.165 240.246 202.754 245.018C202.87 245.937 202.985 248.376 200.047 248.401C198.496 248.414 194.828 246.95 192.914 244.477C189.686 240.302 193.393 238.936 193.393 238.936" stroke="#332933" stroke-width="1.11956" stroke-linecap="round" stroke-linejoin="round"/>
<path d="M202.973 216.837C203.071 218.314 203.827 219.586 204.963 220.459" stroke="#332933" stroke-width="1.11956" stroke-linecap="round" stroke-linejoin="round"/>
<path d="M210.814 215.161L210.464 214.931C210.241 214.743 209.977 214.599 209.678 214.497" stroke="#332933" stroke-width="1.11956" stroke-linecap="round" stroke-linejoin="round"/>
<path d="M156.264 198.094C156.149 198.596 155.961 199.034 155.709 199.409" stroke="#332933" stroke-width="1.11956" stroke-linecap="round" stroke-linejoin="round"/>
<path d="M156.584 194.889C157.357 195.349 157.891 196.094 158.143 196.966C158.464 198.047 158.352 199.324 157.75 200.499C157.033 201.878 155.799 202.789 154.513 203.027C153.761 203.167 152.993 203.078 152.301 202.72C151.643 202.384 151.143 201.852 150.814 201.205" stroke="#332933" stroke-width="1.11956" stroke-linecap="round" stroke-linejoin="round"/>
<path d="M155.955 198.974L155.922 199.007" stroke="#332933" stroke-width="1.11956" stroke-linecap="round" stroke-linejoin="round"/>
<path d="M154.918 200.268V200.264" stroke="#332933" stroke-width="1.11956" stroke-linecap="round" stroke-linejoin="round"/>
<path d="M158.148 196.966C158.148 196.966 161.057 199.932 164.358 200.354C166.378 200.613 167.783 202.618 167.198 204.567C167.074 204.976 166.873 205.363 166.549 205.704C164.755 207.593 162.517 207.359 161.501 207.053C160.484 206.751 156.145 205.099 154.522 203.039C154.522 203.039 154.514 203.031 154.514 203.027" stroke="#332933" stroke-width="1.11956" stroke-linecap="round" stroke-linejoin="round"/>
<path d="M151.44 189.862C151.415 189.513 151.419 189.164 151.496 188.824C151.611 188.317 151.923 187.824 152.406 187.628C152.542 187.577 152.683 187.543 152.824 187.551C153.208 187.577 153.524 187.879 153.7 188.219C153.879 188.56 153.952 188.947 154.08 189.305C154.549 190.667 155.737 191.68 156.224 193.033C156.335 193.339 156.412 193.659 156.471 193.982C156.527 194.267 156.561 194.574 156.587 194.889C156.659 195.919 156.561 197.072 156.266 198.081C156.266 198.081 156.266 198.089 156.266 198.094C156.177 198.413 156.061 198.719 155.925 199.004C155.865 199.145 155.792 199.277 155.72 199.404V199.413C155.502 199.741 155.233 200.026 154.93 200.26C153.883 201.086 152.393 201.358 150.83 201.201C148.143 200.937 145.41 199.664 144.154 197.438" stroke="#332933" stroke-width="1.11956" stroke-linecap="round" stroke-linejoin="round"/>
<path d="M145.791 190.76C145.069 189.624 144.642 188.266 144.514 187.053C144.279 184.9 147.106 184.078 148.012 186.028C148.934 187.496 150.147 188.739 151.437 189.867C151.659 190.062 152.718 190.769 153.149 191.48" stroke="#332933" stroke-width="1.11956" stroke-linecap="round" stroke-linejoin="round"/>
<path d="M149.095 194.86C149.176 194.868 149.249 194.86 149.325 194.86C149.765 194.83 150.15 194.558 150.385 194.187C150.585 193.868 150.705 193.562 150.76 193.268C150.944 192.285 150.393 191.442 149.556 190.91C148.471 190.225 146.904 190.055 145.793 190.765C145.354 191.042 144.986 191.459 144.747 192.034C144.632 192.31 144.572 192.608 144.542 192.906C144.448 193.817 144.354 194.566 145.08 194.63" stroke="#332933" stroke-width="1.11956" stroke-linecap="round" stroke-linejoin="round"/>
<path d="M146.333 198.132C146.645 198.072 146.961 198.055 147.277 198.094C147.354 198.102 147.427 198.115 147.503 198.123C148.003 198.187 148.545 198.242 148.985 198.004C149.541 197.702 149.775 197.021 149.801 196.391C149.818 196.025 149.775 195.646 149.579 195.336C149.412 195.067 149.143 194.876 148.87 194.723C147.674 194.063 146.141 194.05 144.937 194.693C144.621 194.859 144.322 195.08 144.151 195.391C143.993 195.685 143.967 196.034 143.963 196.37C143.954 196.736 143.967 197.119 144.142 197.442" stroke="#332933" stroke-width="1.11956" stroke-linecap="round" stroke-linejoin="round"/>
<path d="M150.375 197.983C151.007 196.634 153.185 195.51 154.624 196.233" stroke="#332933" stroke-width="1.11956" stroke-linecap="round" stroke-linejoin="round"/>
<path d="M153.313 195.914C153.313 195.548 153.164 194.927 152.848 194.642" stroke="#332933" stroke-width="1.11956" stroke-linecap="round" stroke-linejoin="round"/>
<path d="M243.487 172.433C241.505 175.067 247.518 176.438 249.705 175.889C246.698 176.298 245.417 169.871 243.487 172.433Z" fill="#F2789A"/>
<path d="M258.912 275.104C255.359 274.389 248.137 269.776 245.762 266.273C245.57 264.77 246.992 260.991 248.239 259.91C243.682 257.284 250.554 253.696 245.382 248.61C243.315 250.019 240.893 251.129 238.412 251.713C238.489 250.793 238.638 249.874 238.92 248.925C241.752 246.371 243.798 243.094 244.899 239.502C248.982 239.033 252.288 237.693 254.338 239.208C255.846 240.323 256.35 244.698 256.341 244.907C256.063 250.478 259.514 253.547 259.869 263.804C259.958 266.435 259.869 270.325 258.912 275.1V275.104Z" stroke="#332933" stroke-width="1.11956" stroke-linecap="round" stroke-linejoin="round"/>
<path d="M226.359 261.458C226.359 261.458 229.703 270.792 237.212 269.069" stroke="#332933" stroke-width="1.11956" stroke-linecap="round" stroke-linejoin="round"/>
</g>
<defs>
<linearGradient id="paint0_linear_3522_6738" x1="142.486" y1="109.688" x2="140.338" y2="216.644" gradientUnits="userSpaceOnUse">
<stop stop-color="#9E0EB0"/>
<stop offset="1" stop-color="#EF4180"/>
</linearGradient>
<linearGradient id="paint1_linear_3522_6738" x1="189.751" y1="102.82" x2="-17.3047" y2="274.718" gradientUnits="userSpaceOnUse">
<stop offset="0.12" stop-color="#F2789A"/>
<stop offset="0.48" stop-color="#EF4180"/>
<stop offset="0.96" stop-color="#9E0EB0"/>
</linearGradient>
<linearGradient id="paint2_linear_3522_6738" x1="162.391" y1="157.527" x2="188.557" y2="216.13" gradientUnits="userSpaceOnUse">
<stop stop-color="#2B93C7"/>
<stop offset="1" stop-color="#9E0EB0"/>
</linearGradient>
<linearGradient id="paint3_linear_3522_6738" x1="154.208" y1="202.115" x2="167.328" y2="202.115" gradientUnits="userSpaceOnUse">
<stop stop-color="#2B93C7"/>
<stop offset="1" stop-color="#9E0EB0"/>
</linearGradient>
<linearGradient id="paint4_linear_3522_6738" x1="205.429" y1="243.34" x2="191.547" y2="216.572" gradientUnits="userSpaceOnUse">
<stop stop-color="#2B93C7"/>
<stop offset="1" stop-color="#9E0EB0"/>
</linearGradient>
<linearGradient id="paint5_linear_3522_6738" x1="193.08" y1="238.28" x2="200.371" y2="240.066" gradientUnits="userSpaceOnUse">
<stop stop-color="#2B93C7"/>
<stop offset="1" stop-color="#9E0EB0"/>
</linearGradient>
<linearGradient id="paint6_linear_3522_6738" x1="191.286" y1="242.395" x2="203.027" y2="245.271" gradientUnits="userSpaceOnUse">
<stop stop-color="#2B93C7"/>
<stop offset="1" stop-color="#9E0EB0"/>
</linearGradient>
<clipPath id="clip0_3522_6738">
<rect width="150" height="145" fill="white" transform="translate(121.52 147.24)"/>
</clipPath>
<clipPath id="clip1_3522_6738">
<rect width="24.7858" height="38.3974" fill="white" transform="translate(183.771 161.624)"/>
</clipPath>
</defs>
</svg>
