<svg width="44" height="44" viewBox="0 0 44 44" fill="none" xmlns="http://www.w3.org/2000/svg">
<path d="M16.1571 8.25735C17.0976 7.41219 17.5688 6.98869 18.0271 6.68802C19.2069 5.91328 20.5876 5.50049 21.999 5.50049C23.4105 5.50049 24.7911 5.91328 25.9709 6.68802C26.4293 6.98869 26.9004 7.41219 27.8409 8.25735C28.0774 8.47002 28.1948 8.57452 28.3139 8.67535C28.9336 9.18319 29.6321 9.58835 30.3819 9.86702C30.5286 9.92202 30.6789 9.97152 30.9796 10.0687C32.1823 10.461 32.7836 10.6554 33.2749 10.9047C34.5358 11.5389 35.5837 12.528 36.2896 13.7501C36.9955 14.9723 37.3285 16.3743 37.2478 17.7834C37.2148 18.3334 37.0828 18.9512 36.8224 20.1887C36.7763 20.3937 36.7347 20.5997 36.6978 20.8065C36.5656 21.5967 36.5656 22.4033 36.6978 23.1935C36.7234 23.3475 36.7564 23.5034 36.8224 23.8114C37.0846 25.0489 37.2148 25.6685 37.2478 26.2167C37.3285 27.6258 36.9955 29.0277 36.2896 30.2499C35.5837 31.4721 34.5358 32.4612 33.2749 33.0954C32.7836 33.3429 32.1823 33.539 30.9796 33.9295C30.6789 34.0285 30.5286 34.0762 30.3819 34.1312C29.6303 34.4117 28.9336 34.815 28.3158 35.3247C28.1948 35.4255 28.0774 35.53 27.8409 35.7427C26.9004 36.5879 26.4293 37.0114 25.9709 37.3139C24.7912 38.088 23.411 38.5004 21.9999 38.5004C20.5889 38.5004 19.2086 38.088 18.0289 37.3139C17.5688 37.0114 17.0976 36.5879 16.1589 35.7427C16.0036 35.6006 15.8453 35.4619 15.6841 35.3265C15.0663 34.8164 14.3681 34.4125 13.6179 34.1312C13.4713 34.0762 13.3209 34.0285 13.0203 33.9295C11.8158 33.539 11.2144 33.3429 10.7249 33.0954C9.46405 32.4612 8.41615 31.4721 7.71026 30.2499C7.00438 29.0277 6.67132 27.6258 6.7521 26.2167C6.78326 25.6667 6.91526 25.0489 7.17743 23.8114C7.22329 23.6063 7.26485 23.4003 7.3021 23.1935C7.43424 22.4033 7.43424 21.5967 7.3021 20.8065C7.26485 20.5997 7.22329 20.3937 7.17743 20.1887C6.91526 18.9512 6.78326 18.3315 6.7521 17.7834C6.67132 16.3743 7.00438 14.9723 7.71026 13.7501C8.41615 12.528 9.46405 11.5389 10.7249 10.9047C11.2144 10.6572 11.8158 10.461 13.0203 10.0705C13.3209 9.97152 13.4713 9.92385 13.6161 9.86885C14.3678 9.58835 15.0663 9.18319 15.6841 8.67535C15.8447 8.53935 16.0024 8.39999 16.1571 8.25735Z" fill="#FAC795" stroke="#FF8626" stroke-width="4" stroke-linecap="round" stroke-linejoin="round"/>
<path d="M19.201 17.1342C20.0956 15.7537 20.5448 15.0625 21.1278 14.8242C21.6375 14.617 22.2205 14.6134 22.7338 14.8132C23.3205 15.0442 23.7788 15.7299 24.6973 17.0975L26.4811 19.7614C27.0421 20.5992 27.3226 21.0172 27.4308 21.4627C27.5261 21.8587 27.5225 22.2694 27.4235 22.6617C27.3135 23.109 27.0275 23.5234 26.4591 24.3557L24.6808 26.9554C23.7678 28.2937 23.3095 28.9629 22.7265 29.1884C22.2136 29.3852 21.6453 29.3813 21.1351 29.1774C20.554 28.9445 20.1085 28.2699 19.2156 26.9187L17.485 24.3007C16.9478 23.4867 16.6783 23.0815 16.572 22.647C16.4779 22.2636 16.476 21.8634 16.5665 21.4792C16.6691 21.0447 16.9331 20.6359 17.463 19.8182L19.201 17.1342Z" stroke="#FF8626" stroke-width="4" stroke-linecap="round" stroke-linejoin="round"/>
</svg>
