<?xml version="1.0" standalone="no"?>
<!DOCTYPE svg PUBLIC "-//W3C//DTD SVG 20010904//EN"
 "http://www.w3.org/TR/2001/REC-SVG-20010904/DTD/svg10.dtd">
<svg version="1.0" xmlns="http://www.w3.org/2000/svg"
 width="2500.000000pt" height="2500.000000pt" viewBox="0 0 2500.000000 2500.000000"
 preserveAspectRatio="xMidYMid meet">

<g transform="translate(0.000000,2500.000000) scale(0.100000,-0.100000)"
fill="#000000" stroke="none">
<path d="M11950 24989 c-2267 -94 -4462 -801 -6350 -2044 -3054 -2010 -5080
-5241 -5540 -8833 -19 -151 -60 -521 -60 -549 0 -10 1662 -13 8275 -13 l8275
0 0 -1050 0 -1050 -8275 0 c-6613 0 -8275 -3 -8275 -12 0 -29 41 -399 60 -550
263 -2054 1052 -4038 2276 -5719 1613 -2218 3897 -3843 6509 -4634 2713 -820
5664 -693 8285 357 344 138 584 246 940 424 520 260 860 457 1330 769 1025
679 1912 1474 2702 2419 839 1004 1522 2147 2009 3364 891 2224 1118 4684 653
7057 -547 2789 -2056 5329 -4254 7164 -601 502 -1271 962 -1950 1340 -391 218
-946 483 -1385 661 -1634 663 -3437 974 -5225 899z"/>
</g>
</svg>
